<?xml version="1.0" encoding="utf-8"?>
<!-- Generator: Adobe Illustrator 19.1.0, SVG Export Plug-In . SVG Version: 6.00 Build 0)  -->
<svg version="1.1" id="Layer_1" xmlns="http://www.w3.org/2000/svg" xmlns:xlink="http://www.w3.org/1999/xlink" x="0px" y="0px"
	 viewBox="-71 372.3 720 121.7" style="enable-background:new -71 372.3 720 121.7;" xml:space="preserve">
<style type="text/css">
	.st0{fill:#00A1DF;}
	.st1{fill:#29739D;}
	.st2{fill:#FFFFFF;}
	.st3{fill:#D4504C;}
</style>
<g>
	<path class="st0" d="M639.3,372.3c5.4,0,9.7,4.4,9.7,9.7v86.4c0,5.4-4.4,9.7-9.7,9.7H262.7l43.1-60.4h-15.1l20.3-45.4H639.3z"/>
	<path class="st1" d="M267.7,430.2l21.3-57.9H-61.3c-5.3,0-9.7,4.4-9.7,9.7v86.4c0,5.4,4.4,9.7,9.7,9.7H262l21.3-47.9H267.7z"/>
	<g>
		<path class="st2" d="M332.1,441.2H351l-0.4,2.5h-21.7l6.3-40.1h2.9L332.1,441.2z"/>
		<path class="st2" d="M358.8,443.7H356l4.5-28.3h2.8L358.8,443.7z M361.4,405.5c0-0.8,0.2-1.4,0.6-1.9s1-0.7,1.9-0.7
			c1.2,0,1.9,0.5,1.9,1.6c0,0.7-0.2,1.3-0.6,1.8s-1,0.7-1.9,0.7C362,407,361.4,406.5,361.4,405.5z"/>
		<path class="st2" d="M366.5,455.1l1.4-1.9c2.4,1.8,5.1,2.7,8.2,2.7c3.4,0,6.1-1,8.1-3s3.3-4.8,3.9-8.4l1.1-6.9h-0.1
			c-1.3,2.3-2.9,4-4.8,5.1s-4.1,1.6-6.4,1.6c-3.2,0-5.7-1-7.5-3.1s-2.7-4.8-2.7-8.4c0-3.5,0.7-6.6,2-9.4c1.4-2.8,3.3-4.9,5.8-6.5
			c2.5-1.6,5.5-2.4,8.9-2.4c2,0,3.8,0.2,5.5,0.7c1.6,0.5,3.3,1.3,5,2.3l-4.1,26.7c-0.6,4.3-2.2,7.7-4.7,10.2s-5.9,3.7-10.1,3.7
			c-1.8,0-3.6-0.3-5.3-0.8C369.1,456.9,367.7,456.1,366.5,455.1z M390.3,429.5l1.6-10.6c-2-1.3-4.5-1.9-7.5-1.9
			c-2.8,0-5.3,0.7-7.4,2.1c-2.1,1.4-3.7,3.3-4.8,5.6c-1.1,2.4-1.6,5-1.6,7.9c0,2.9,0.7,5.2,2,6.9c1.4,1.7,3.3,2.6,5.8,2.6
			c3,0,5.6-1.2,7.8-3.5C388.4,436.3,389.7,433.2,390.3,429.5z"/>
		<path class="st2" d="M405.3,403.6h2.8l-3,18.2h0.1c1-2.1,2.5-3.8,4.6-5.2c2.1-1.3,4.4-2,7-2c2.9,0,5,0.8,6.4,2.4
			c1.4,1.6,2.1,3.6,2.1,6.2c0,0.9-0.1,1.8-0.2,2.5l-2.9,17.9h-2.8l2.8-17.4c0.2-0.8,0.2-1.7,0.2-2.6c0-4.4-2.1-6.6-6.3-6.6
			c-3.2,0-5.9,1.4-8.1,4.1c-2.2,2.7-3.7,6.3-4.3,10.9l-1.9,11.7H399L405.3,403.6z"/>
		<path class="st2" d="M438.9,415.4h7.8l-0.3,2.2h-7.8l-3,18.7c-0.2,0.9-0.2,1.7-0.2,2.3c0,2.3,1.2,3.5,3.7,3.5c1,0,2.1-0.2,3.2-0.5
			l0.2,2.2c-1.2,0.5-2.5,0.7-4.1,0.7c-1.8,0-3.3-0.5-4.3-1.4c-1-0.9-1.6-2.3-1.6-4.1c0-0.6,0.1-1.5,0.2-2.5l3-18.9h-5.2l0.3-1.9
			l5.3-0.3l1.2-7.4l3-1L438.9,415.4z"/>
		<path class="st2" d="M451.8,421.5c0.2-1.4,0.4-3.4,0.6-6.1h2.6c-0.1,2.4-0.3,4.6-0.7,6.6h0.1c1-2.2,2.6-4,4.6-5.4
			c2.1-1.4,4.4-2,7-2c2.9,0,5,0.8,6.4,2.4c1.4,1.6,2.1,3.6,2.1,6.2c0,0.9-0.1,1.8-0.2,2.5l-2.8,17.9h-2.8l2.7-17.4
			c0.2-0.8,0.2-1.7,0.2-2.6c0-4.4-2.1-6.6-6.3-6.6c-3.2,0-5.9,1.4-8.1,4.1c-2.2,2.7-3.7,6.3-4.3,10.9l-1.9,11.7h-2.8L451.8,421.5z"
			/>
		<path class="st2" d="M483.2,443.7h-2.8l4.5-28.3h2.8L483.2,443.7z M485.8,405.5c0-0.8,0.2-1.4,0.6-1.9c0.4-0.5,1-0.7,1.9-0.7
			c1.2,0,1.9,0.5,1.9,1.6c0,0.7-0.2,1.3-0.6,1.8c-0.4,0.5-1,0.7-1.9,0.7C486.4,407,485.8,406.5,485.8,405.5z"/>
		<path class="st2" d="M496.1,421.5c0.2-1.4,0.4-3.4,0.6-6.1h2.6c-0.1,2.4-0.3,4.6-0.7,6.6h0.1c1-2.2,2.6-4,4.6-5.4
			c2.1-1.4,4.4-2,7-2c2.9,0,5,0.8,6.4,2.4c1.4,1.6,2.1,3.6,2.1,6.2c0,0.9-0.1,1.8-0.2,2.5l-2.8,17.9H513l2.7-17.4
			c0.2-0.8,0.2-1.7,0.2-2.6c0-4.4-2.1-6.6-6.3-6.6c-3.2,0-5.9,1.4-8.1,4.1c-2.2,2.7-3.7,6.3-4.3,10.9l-1.9,11.7h-2.8L496.1,421.5z"
			/>
		<path class="st2" d="M523.2,455.1l1.4-1.9c2.4,1.8,5.1,2.7,8.2,2.7c3.4,0,6.1-1,8.1-3s3.3-4.8,3.9-8.4l1.1-6.9h-0.1
			c-1.3,2.3-2.9,4-4.8,5.1c-1.9,1.1-4.1,1.6-6.4,1.6c-3.2,0-5.7-1-7.5-3.1s-2.7-4.8-2.7-8.4c0-3.5,0.7-6.6,2-9.4
			c1.4-2.8,3.3-4.9,5.8-6.5c2.5-1.6,5.5-2.4,8.9-2.4c2,0,3.8,0.2,5.5,0.7c1.6,0.5,3.3,1.3,5,2.3l-4.1,26.7
			c-0.6,4.3-2.2,7.7-4.7,10.2s-5.9,3.7-10.1,3.7c-1.8,0-3.6-0.3-5.3-0.8C525.8,456.9,524.3,456.1,523.2,455.1z M546.9,429.5
			l1.6-10.6c-2-1.3-4.5-1.9-7.5-1.9c-2.8,0-5.3,0.7-7.4,2.1c-2.1,1.4-3.7,3.3-4.8,5.6c-1.1,2.4-1.6,5-1.6,7.9c0,2.9,0.7,5.2,2,6.9
			c1.4,1.7,3.3,2.6,5.8,2.6c3,0,5.6-1.2,7.8-3.5C545,436.3,546.4,433.2,546.9,429.5z"/>
		<path class="st2" d="M565.1,442.7l1.3-2c1.7,0.9,3.5,1.4,5.5,1.4c2.7,0,4.8-0.8,6.3-2.5c1.5-1.7,2.5-4,2.9-6.8l4.6-29.1h2.9
			l-4.6,29.1c-0.6,3.5-1.9,6.4-3.9,8.6c-2,2.2-4.8,3.3-8.4,3.3C569.3,444.5,567.1,443.9,565.1,442.7z"/>
		<path class="st2" d="M588.5,439.9l1.6-1.9c1.5,1.4,3.2,2.4,5,3c1.8,0.7,3.8,1,6.1,1c3.5,0,6.3-0.9,8.4-2.7
			c2.1-1.8,3.2-4.3,3.2-7.4c0-2.2-0.7-3.9-2.2-5.1s-3.8-2.3-6.9-3.4c-3.2-1-5.5-2.3-7.1-3.7c-1.6-1.5-2.4-3.4-2.4-5.7
			c0-3.6,1.3-6.4,3.9-8.4c2.6-2,6-3,10.1-3c4.2,0,7.8,1.2,10.9,3.5l-1.5,1.9c-1.4-1-2.9-1.8-4.5-2.3c-1.5-0.5-3.3-0.7-5.2-0.7
			c-3.2,0-5.9,0.7-7.9,2.2s-3,3.6-3,6.5c0,1.8,0.7,3.3,2,4.3c1.3,1.1,3.4,2.1,6.2,3c3.5,1.1,6.1,2.5,7.9,4.1
			c1.8,1.6,2.7,3.7,2.7,6.3c0,2.6-0.6,4.9-1.9,6.9c-1.3,1.9-3,3.4-5.2,4.5c-2.2,1-4.8,1.6-7.6,1.6
			C595.9,444.5,591.8,443,588.5,439.9z"/>
	</g>
	<circle class="st2" cx="73.5" cy="406.1" r="4.8"/>
	<path class="st2" d="M70.2,414.5c-0.4,0-0.7,0.3-0.7,0.7V443c0,0.4,0.3,0.7,0.7,0.7h6.6c0.4,0,0.7-0.3,0.7-0.7v-27.8
		c0-0.4-0.3-0.7-0.7-0.7H70.2z"/>
	<path class="st2" d="M42.4,414.5h-6.6c-0.4,0-0.7,0.3-0.7,0.7v38.4c0,0.4,0.3,0.7,0.7,0.7h6.6c0.4,0,0.7-0.3,0.7-0.7v-13.5
		c0-0.1,0.1-0.2,0.2-0.2c1.4,2.1,5.3,4.4,9.3,4.5c8.5-0.1,13-7.1,13-15.2c0-8.8-4.4-15.8-13.4-15.9c-3.7,0-6.8,1.5-8.8,4.6
		c-0.2,0-0.3-0.1-0.3-0.3v-2.2C43,414.8,42.7,414.5,42.4,414.5z M50.4,419.3c9.4,0.2,9.8,18.6,0.1,18.9
		C40.6,437.8,41,419.4,50.4,419.3z"/>
	<path class="st2" d="M-33.5,443.7c0.3,0,0.5-0.2,0.6-0.4l3-8.4c0.1-0.3,0.3-0.4,0.6-0.4h14.7c0.3,0,0.5,0.2,0.6,0.4l3.3,8.4
		c0.1,0.3,0.3,0.4,0.6,0.4h6.5c0.2,0,0.4-0.1,0.5-0.3C-3,443.2-3,443-3,442.8L-18.3,403c-0.1-0.3-0.3-0.4-0.6-0.4h-7
		c-0.3,0-0.5,0.2-0.6,0.4l-14.2,39.8c-0.1,0.2,0,0.4,0.1,0.6c0.1,0.2,0.3,0.3,0.5,0.3H-33.5z M-27.1,426.9l4.2-11.9
		c0.1-0.3,0.3-0.4,0.6-0.4s0.5,0.2,0.6,0.4l4.7,11.9c0.1,0.2,0.1,0.4-0.1,0.6c-0.1,0.2-0.3,0.3-0.5,0.3h-8.8c-0.2,0-0.4-0.1-0.5-0.3
		C-27.1,427.3-27.2,427.1-27.1,426.9z"/>
	<path class="st2" d="M8,414.5H1.4c-0.4,0-0.7,0.3-0.7,0.7v38.4c0,0.4,0.3,0.7,0.7,0.7H8c0.4,0,0.7-0.3,0.7-0.7V440
		c0-0.1,0.1-0.2,0.2-0.2c1.4,2.1,5.3,4.4,9.3,4.5c8.5-0.1,13-7.1,13-15.2c0-8.8-4.4-15.8-13.4-15.9c-3.7,0-6.8,1.5-8.8,4.6
		c-0.2,0-0.3-0.1-0.3-0.3v-2.2C8.6,414.8,8.3,414.5,8,414.5z M16,419.3c9.4,0.2,9.8,18.6,0.1,18.9C6.2,437.8,6.6,419.4,16,419.3z"/>
	<path class="st2" d="M90.1,414.5h-6.6c-0.4,0-0.7,0.3-0.7,0.7v38.4c0,0.4,0.3,0.7,0.7,0.7h6.6c0.4,0,0.7-0.3,0.7-0.7V440
		c0-0.1,0.1-0.2,0.2-0.2c1.4,2.1,5.3,4.4,9.3,4.5c8.5-0.1,13-7.1,13-15.2c0-8.8-4.4-15.8-13.4-15.9c-3.7,0-6.8,1.5-8.8,4.6
		c-0.2,0-0.3-0.1-0.3-0.3v-2.2C90.7,414.8,90.4,414.5,90.1,414.5z M98,419.3c9.4,0.2,9.8,18.6,0.1,18.9
		C88.3,437.8,88.7,419.4,98,419.3z"/>
	<path class="st2" d="M241.8,414.5h-7c-0.3,0-0.5,0.2-0.6,0.5l-6.3,19.1c0,0,0,0.1-0.1,0.1c0,0-0.1,0-0.1-0.1l-6.5-19.1
		c-0.1-0.3-0.3-0.4-0.6-0.4h-7.2c-0.2,0-0.4,0.1-0.5,0.3c-0.1,0.2-0.2,0.4-0.1,0.6l10,26.2l0,0c2.3,6.2-4.4,5.6-7.1,5.3
		c-0.2,0-0.4,0-0.5,0.2c-0.1,0.1-0.2,0.3-0.2,0.5v5.3c0,0.3,0.3,0.6,0.6,0.7c7.6,0.8,12.4,0.2,14.8-6.4l0,0l12.1-31.7
		c0.1-0.2,0-0.4-0.1-0.6C242.2,414.6,242,414.5,241.8,414.5z"/>
	<path class="st2" d="M190.2,414.5h-6.6c-0.4,0-0.7,0.3-0.7,0.7V443c0,0.4,0.3,0.7,0.7,0.7h6.6c0.4,0,0.7-0.3,0.7-0.7v-15l0,0
		c0-4.7,2-8.5,6.8-8.4c4.2,0,5.2,3.1,5.2,7.2l0,0V443c0,0.4,0.3,0.7,0.7,0.7h6.6c0.4,0,0.7-0.3,0.7-0.7v-17.7
		c0-8.4-2.4-12.1-10.6-12.2l0,0c-3.9,0-7.1,1.6-9.3,4.9v-2.9C190.9,414.8,190.6,414.5,190.2,414.5z"/>
	<path class="st2" d="M163.9,444.3c8.5-0.1,13.5-4.9,14.9-11.4c0.2-1.1,0.4-2.2,0.4-3.3c0.4-9.4-5-16.3-15.3-16.4
		c-8,0.1-12.9,4.5-14.6,10.5c-0.6,2.2-0.8,4.6-0.6,6.9C149.4,438.6,154.7,444.1,163.9,444.3z M163.9,419.3c9.9,0.2,9.6,18.9,0,18.9
		C154.2,438.2,154.2,419.4,163.9,419.3z"/>
	<path class="st2" d="M124.5,402.7h-6.6c-0.4,0-0.7,0.3-0.7,0.7V443c0,0.4,0.3,0.7,0.7,0.7h6.6c0.4,0,0.7-0.3,0.7-0.7v-15l0,0
		c0-4.5,2.1-8.5,6.6-8.4c4.3,0,5.4,2.9,5.4,7.2l0,0V443c0,0.4,0.3,0.7,0.7,0.7h6.5c0.4,0,0.7-0.3,0.7-0.7v-17.7
		c0-8.2-2.1-12-10.5-12.2l0,0c-4,0-7.2,1.6-9.3,4.9v-14.6C125.1,403,124.8,402.7,124.5,402.7z"/>
	<g>
		<polygon class="st2" points="262,478.2 283.3,430.2 267.7,430.2 289,372.3 310.9,372.3 290.7,417.7 305.8,417.7 262.7,478.2 		"/>
	</g>
</g>
<g>
	<path class="st3" d="M561,494c-1.6,0-2.9-1.3-2.9-2.9v-25.8c0-1.6,1.3-2.9,2.9-2.9h68.3c1.6,0,2.9,1.3,2.9,2.9v25.9
		c0,1.6-1.3,2.9-2.9,2.9L561,494z"/>
	<g>
		<path class="st2" d="M566.3,470.6h8.4c4,0,4.9,2.3,4.9,3.8s-0.7,2.4-1.9,3c1.4,0.5,2.6,1.6,2.6,3.8c0,3.1-2.6,4.6-5.3,4.6h-8.7
			V470.6z M571,476.5h2.5c1,0,1.6-0.3,1.6-1.3c0-0.8-0.6-1-1.6-1H571V476.5z M571,482.2h2.8c1,0,1.8-0.3,1.8-1.5
			c0-0.9-0.5-1.4-1.6-1.4h-3V482.2z"/>
		<path class="st2" d="M582.6,470.6h12.6v3.9h-7.9v1.9h7.2v3.6h-7.2v1.9h8.2v3.9h-12.9L582.6,470.6z"/>
		<path class="st2" d="M601.6,474.5h-4.3v-3.9h13.2v3.9h-4.3v11.3h-4.7L601.6,474.5L601.6,474.5z"/>
		<path class="st2" d="M615.1,470.6h4.6l5.6,15.3h-4.9l-0.6-2.2H615l-0.7,2.2h-4.7L615.1,470.6z M618.8,480.4l-1.4-4.7l0,0l-1.5,4.7
			H618.8z"/>
	</g>
</g>
</svg>
