<?xml version="1.0" encoding="utf-8"?>
<!-- Generator: Adobe Illustrator 19.1.0, SVG Export Plug-In . SVG Version: 6.00 Build 0)  -->
<svg version="1.1" id="Layer_1" xmlns="http://www.w3.org/2000/svg" xmlns:xlink="http://www.w3.org/1999/xlink" x="0px" y="0px"
	 viewBox="-142 744.6 720 121.8" style="enable-background:new -142 744.6 720 121.8;" xml:space="preserve">
<style type="text/css">
	.st0{fill:#00A1DF;}
	.st1{fill:#29739D;}
	.st2{fill:#FFFFFF;}
	.st3{fill:#D4504C;}
</style>
<g>
	<path class="st0" d="M568.3,744.6c5.4,0,9.7,4.4,9.7,9.7v86.4c0,5.4-4.4,9.7-9.7,9.7H191.7l43.1-60.4h-15.1l20.3-45.4H568.3
		L568.3,744.6z"/>
	<path class="st1" d="M196.7,802.5l21.3-57.9h-350.3c-5.3,0-9.7,4.4-9.7,9.7v86.4c0,5.4,4.4,9.7,9.7,9.7H191l21.3-47.9H196.7
		L196.7,802.5z"/>
	<g>
		<path class="st2" d="M261.1,813.5H280l-0.4,2.5h-21.7l6.3-40.1h2.9L261.1,813.5z"/>
		<path class="st2" d="M287.8,816H285l4.5-28.3h2.8L287.8,816z M290.4,777.8c0-0.8,0.2-1.4,0.6-1.9s1-0.7,1.9-0.7
			c1.2,0,1.9,0.5,1.9,1.6c0,0.7-0.2,1.3-0.6,1.8s-1,0.7-1.9,0.7C291,779.3,290.4,778.8,290.4,777.8z"/>
		<path class="st2" d="M295.5,827.4l1.4-1.9c2.4,1.8,5.1,2.7,8.2,2.7c3.4,0,6.1-1,8.1-3s3.3-4.8,3.9-8.4l1.1-6.9h-0.1
			c-1.3,2.3-2.9,4-4.8,5.1c-1.9,1.1-4.1,1.6-6.4,1.6c-3.2,0-5.7-1-7.5-3.1c-1.8-2.1-2.7-4.8-2.7-8.4c0-3.5,0.7-6.6,2-9.4
			c1.4-2.8,3.3-4.9,5.8-6.5c2.5-1.6,5.5-2.4,8.9-2.4c2,0,3.8,0.2,5.5,0.7c1.6,0.5,3.3,1.3,5,2.3l-4.1,26.7
			c-0.6,4.3-2.2,7.7-4.7,10.2s-5.9,3.7-10.1,3.7c-1.8,0-3.6-0.3-5.3-0.8C298.1,829.2,296.7,828.4,295.5,827.4z M319.3,801.8
			l1.6-10.6c-2-1.3-4.5-1.9-7.5-1.9c-2.8,0-5.3,0.7-7.4,2.1c-2.1,1.4-3.7,3.3-4.8,5.6c-1.1,2.4-1.6,5-1.6,7.9c0,2.9,0.7,5.2,2,6.9
			c1.4,1.7,3.3,2.6,5.8,2.6c3,0,5.6-1.2,7.8-3.5C317.4,808.6,318.7,805.5,319.3,801.8z"/>
		<path class="st2" d="M334.3,775.9h2.8l-3,18.2h0.1c1-2.1,2.5-3.8,4.6-5.2c2.1-1.3,4.4-2,7-2c2.9,0,5,0.8,6.4,2.4s2.1,3.6,2.1,6.2
			c0,0.9-0.1,1.8-0.2,2.5l-2.9,17.9h-2.8l2.8-17.4c0.2-0.8,0.2-1.7,0.2-2.6c0-4.4-2.1-6.6-6.3-6.6c-3.2,0-5.9,1.4-8.1,4.1
			c-2.2,2.7-3.7,6.3-4.3,10.9l-1.9,11.7H328L334.3,775.9z"/>
		<path class="st2" d="M367.9,787.7h7.8l-0.3,2.2h-7.8l-3,18.7c-0.2,0.9-0.2,1.7-0.2,2.3c0,2.3,1.2,3.5,3.7,3.5c1,0,2.1-0.2,3.2-0.5
			l0.2,2.2c-1.2,0.5-2.5,0.7-4.1,0.7c-1.8,0-3.3-0.5-4.3-1.4s-1.6-2.3-1.6-4.1c0-0.6,0.1-1.5,0.2-2.5l3-18.9h-5.2l0.3-1.9l5.3-0.3
			l1.2-7.4l3-1L367.9,787.7z"/>
		<path class="st2" d="M380.8,793.8c0.2-1.4,0.4-3.4,0.6-6.1h2.6c-0.1,2.4-0.3,4.6-0.7,6.6h0.1c1-2.2,2.6-4,4.6-5.4
			c2.1-1.4,4.4-2,7-2c2.9,0,5,0.8,6.4,2.4s2.1,3.6,2.1,6.2c0,0.9-0.1,1.8-0.2,2.5l-2.8,17.9h-2.8l2.7-17.4c0.2-0.8,0.2-1.7,0.2-2.6
			c0-4.4-2.1-6.6-6.3-6.6c-3.2,0-5.9,1.4-8.1,4.1c-2.2,2.7-3.7,6.3-4.3,10.9L380,816h-2.8L380.8,793.8z"/>
		<path class="st2" d="M412.2,816h-2.8l4.5-28.3h2.8L412.2,816z M414.8,777.8c0-0.8,0.2-1.4,0.6-1.9s1-0.7,1.9-0.7
			c1.2,0,1.9,0.5,1.9,1.6c0,0.7-0.2,1.3-0.6,1.8s-1,0.7-1.9,0.7C415.4,779.3,414.8,778.8,414.8,777.8z"/>
		<path class="st2" d="M425.1,793.8c0.2-1.4,0.4-3.4,0.6-6.1h2.6c-0.1,2.4-0.3,4.6-0.7,6.6h0.1c1-2.2,2.6-4,4.6-5.4
			c2.1-1.4,4.4-2,7-2c2.9,0,5,0.8,6.4,2.4c1.4,1.6,2.1,3.6,2.1,6.2c0,0.9-0.1,1.8-0.2,2.5l-2.8,17.9H442l2.7-17.4
			c0.2-0.8,0.2-1.7,0.2-2.6c0-4.4-2.1-6.6-6.3-6.6c-3.2,0-5.9,1.4-8.1,4.1c-2.2,2.7-3.7,6.3-4.3,10.9l-1.9,11.7h-2.8L425.1,793.8z"
			/>
		<path class="st2" d="M452.2,827.4l1.4-1.9c2.4,1.8,5.1,2.7,8.2,2.7c3.4,0,6.1-1,8.1-3s3.3-4.8,3.9-8.4l1.1-6.9h-0.1
			c-1.3,2.3-2.9,4-4.8,5.1c-1.9,1.1-4.1,1.6-6.4,1.6c-3.2,0-5.7-1-7.5-3.1c-1.8-2.1-2.7-4.8-2.7-8.4c0-3.5,0.7-6.6,2-9.4
			c1.4-2.8,3.3-4.9,5.8-6.5c2.5-1.6,5.5-2.4,8.9-2.4c2,0,3.8,0.2,5.5,0.7c1.6,0.5,3.3,1.3,5,2.3l-4.1,26.7
			c-0.6,4.3-2.2,7.7-4.7,10.2s-5.9,3.7-10.1,3.7c-1.8,0-3.6-0.3-5.3-0.8C454.8,829.2,453.3,828.4,452.2,827.4z M475.9,801.8
			l1.6-10.6c-2-1.3-4.5-1.9-7.5-1.9c-2.8,0-5.3,0.7-7.4,2.1c-2.1,1.4-3.7,3.3-4.8,5.6c-1.1,2.4-1.6,5-1.6,7.9c0,2.9,0.7,5.2,2,6.9
			c1.4,1.7,3.3,2.6,5.8,2.6c3,0,5.6-1.2,7.8-3.5C474,808.6,475.4,805.5,475.9,801.8z"/>
		<path class="st2" d="M494.1,815l1.3-2c1.7,0.9,3.5,1.4,5.5,1.4c2.7,0,4.8-0.8,6.3-2.5c1.5-1.7,2.5-4,2.9-6.8l4.6-29.1h2.9
			l-4.6,29.1c-0.6,3.5-1.9,6.4-3.9,8.6s-4.8,3.3-8.4,3.3C498.3,816.8,496.1,816.2,494.1,815z"/>
		<path class="st2" d="M517.5,812.2l1.6-1.9c1.5,1.4,3.2,2.4,5,3c1.8,0.7,3.8,1,6.1,1c3.5,0,6.3-0.9,8.4-2.7
			c2.1-1.8,3.2-4.3,3.2-7.4c0-2.2-0.7-3.9-2.2-5.1s-3.8-2.3-6.9-3.4c-3.2-1-5.5-2.3-7.1-3.7c-1.6-1.5-2.4-3.4-2.4-5.7
			c0-3.6,1.3-6.4,3.9-8.4c2.6-2,6-3,10.1-3c4.2,0,7.8,1.2,10.9,3.5l-1.5,1.9c-1.4-1-2.9-1.8-4.5-2.3c-1.5-0.5-3.3-0.7-5.2-0.7
			c-3.2,0-5.9,0.7-7.9,2.2s-3,3.6-3,6.5c0,1.8,0.7,3.3,2,4.3c1.3,1.1,3.4,2.1,6.2,3c3.5,1.1,6.1,2.5,7.9,4.1
			c1.8,1.6,2.7,3.7,2.7,6.3s-0.6,4.9-1.9,6.9c-1.3,1.9-3,3.4-5.2,4.5c-2.2,1-4.8,1.6-7.6,1.6C524.9,816.8,520.8,815.3,517.5,812.2z"
			/>
	</g>
	<circle class="st2" cx="2.5" cy="778.4" r="4.8"/>
	<path class="st2" d="M-0.8,786.8c-0.4,0-0.7,0.3-0.7,0.7v27.8c0,0.4,0.3,0.7,0.7,0.7h6.6c0.4,0,0.7-0.3,0.7-0.7v-27.8
		c0-0.4-0.3-0.7-0.7-0.7H-0.8z"/>
	<path class="st2" d="M-28.6,786.8h-6.6c-0.4,0-0.7,0.3-0.7,0.7v38.4c0,0.4,0.3,0.7,0.7,0.7h6.6c0.4,0,0.7-0.3,0.7-0.7v-13.5
		c0-0.1,0.1-0.2,0.2-0.2c1.4,2.1,5.3,4.4,9.3,4.5c8.5-0.1,13-7.1,13-15.2c0-8.8-4.4-15.8-13.4-15.9c-3.7,0-6.8,1.5-8.8,4.6
		c-0.2,0-0.3-0.1-0.3-0.3v-2.2C-28,787.1-28.3,786.8-28.6,786.8z M-20.6,791.6c9.4,0.2,9.8,18.6,0.1,18.9
		C-30.4,810.1-30,791.7-20.6,791.6z"/>
	<path class="st2" d="M-104.5,816c0.3,0,0.5-0.2,0.6-0.4l3-8.4c0.1-0.3,0.3-0.4,0.6-0.4h14.7c0.3,0,0.5,0.2,0.6,0.4l3.3,8.4
		c0.1,0.3,0.3,0.4,0.6,0.4h6.5c0.2,0,0.4-0.1,0.5-0.3s0.1-0.4,0.1-0.6l-15.3-39.8c-0.1-0.3-0.3-0.4-0.6-0.4h-7
		c-0.3,0-0.5,0.2-0.6,0.4l-14.2,39.8c-0.1,0.2,0,0.4,0.1,0.6c0.1,0.2,0.3,0.3,0.5,0.3H-104.5L-104.5,816z M-98.1,799.2l4.2-11.9
		c0.1-0.3,0.3-0.4,0.6-0.4s0.5,0.2,0.6,0.4l4.7,11.9c0.1,0.2,0.1,0.4-0.1,0.6c-0.1,0.2-0.3,0.3-0.5,0.3h-8.8c-0.2,0-0.4-0.1-0.5-0.3
		C-98.1,799.6-98.2,799.4-98.1,799.2z"/>
	<path class="st2" d="M-63,786.8h-6.6c-0.4,0-0.7,0.3-0.7,0.7v38.4c0,0.4,0.3,0.7,0.7,0.7h6.6c0.4,0,0.7-0.3,0.7-0.7v-13.6
		c0-0.1,0.1-0.2,0.2-0.2c1.4,2.1,5.3,4.4,9.3,4.5c8.5-0.1,13-7.1,13-15.2c0-8.8-4.4-15.8-13.4-15.9c-3.7,0-6.8,1.5-8.8,4.6
		c-0.2,0-0.3-0.1-0.3-0.3v-2.2C-62.4,787.1-62.7,786.8-63,786.8z M-55,791.6c9.4,0.2,9.8,18.6,0.1,18.9
		C-64.8,810.1-64.4,791.7-55,791.6z"/>
	<path class="st2" d="M19.1,786.8h-6.6c-0.4,0-0.7,0.3-0.7,0.7v38.4c0,0.4,0.3,0.7,0.7,0.7h6.6c0.4,0,0.7-0.3,0.7-0.7v-13.6
		c0-0.1,0.1-0.2,0.2-0.2c1.4,2.1,5.3,4.4,9.3,4.5c8.5-0.1,13-7.1,13-15.2c0-8.8-4.4-15.8-13.4-15.9c-3.7,0-6.8,1.5-8.8,4.6
		c-0.2,0-0.3-0.1-0.3-0.3v-2.2C19.7,787.1,19.4,786.8,19.1,786.8z M27,791.6c9.4,0.2,9.8,18.6,0.1,18.9
		C17.3,810.1,17.7,791.7,27,791.6z"/>
	<path class="st2" d="M170.8,786.8h-7c-0.3,0-0.5,0.2-0.6,0.5l-6.3,19.1c0,0,0,0.1-0.1,0.1c0,0-0.1,0-0.1-0.1l-6.5-19.1
		c-0.1-0.3-0.3-0.4-0.6-0.4h-7.2c-0.2,0-0.4,0.1-0.5,0.3c-0.1,0.2-0.2,0.4-0.1,0.6l10,26.2l0,0c2.3,6.2-4.4,5.6-7.1,5.3
		c-0.2,0-0.4,0-0.5,0.2c-0.1,0.1-0.2,0.3-0.2,0.5v5.3c0,0.3,0.3,0.6,0.6,0.7c7.6,0.8,12.4,0.2,14.8-6.4l0,0l12.1-31.7
		c0.1-0.2,0-0.4-0.1-0.6C171.2,786.9,171,786.8,170.8,786.8z"/>
	<path class="st2" d="M119.2,786.8h-6.6c-0.4,0-0.7,0.3-0.7,0.7v27.8c0,0.4,0.3,0.7,0.7,0.7h6.6c0.4,0,0.7-0.3,0.7-0.7v-15l0,0
		c0-4.7,2-8.5,6.8-8.4c4.2,0,5.2,3.1,5.2,7.2l0,0v16.2c0,0.4,0.3,0.7,0.7,0.7h6.6c0.4,0,0.7-0.3,0.7-0.7v-17.7
		c0-8.4-2.4-12.1-10.6-12.2l0,0c-3.9,0-7.1,1.6-9.3,4.9v-2.9C119.9,787.1,119.6,786.8,119.2,786.8z"/>
	<path class="st2" d="M92.9,816.6c8.5-0.1,13.5-4.9,14.9-11.4c0.2-1.1,0.4-2.2,0.4-3.3c0.4-9.4-5-16.3-15.3-16.4
		c-8,0.1-12.9,4.5-14.6,10.5c-0.6,2.2-0.8,4.6-0.6,6.9C78.4,810.9,83.7,816.4,92.9,816.6z M92.9,791.6c9.9,0.2,9.6,18.9,0,18.9
		C83.2,810.5,83.2,791.7,92.9,791.6z"/>
	<path class="st2" d="M53.5,775h-6.6c-0.4,0-0.7,0.3-0.7,0.7v39.6c0,0.4,0.3,0.7,0.7,0.7h6.6c0.4,0,0.7-0.3,0.7-0.7v-15l0,0
		c0-4.5,2.1-8.5,6.6-8.4c4.3,0,5.4,2.9,5.4,7.2l0,0v16.2c0,0.4,0.3,0.7,0.7,0.7h6.5c0.4,0,0.7-0.3,0.7-0.7v-17.7
		c0-8.2-2.1-12-10.5-12.2l0,0c-4,0-7.2,1.6-9.3,4.9v-14.6C54.1,775.3,53.8,775,53.5,775z"/>
	<g>
		<polygon class="st2" points="191,850.5 212.3,802.5 196.7,802.5 218,744.6 239.9,744.6 219.7,790 234.8,790 191.7,850.5 		"/>
	</g>
</g>
<g>
	<path class="st3" d="M490,866.3c-1.6,0-2.9-1.3-2.9-2.9v-25.8c0-1.6,1.3-2.9,2.9-2.9h68.3c1.6,0,2.9,1.3,2.9,2.9v25.9
		c0,1.6-1.3,2.9-2.9,2.9L490,866.3z"/>
	<g>
		<path class="st2" d="M495.3,842.9h8.4c4,0,4.9,2.3,4.9,3.8s-0.7,2.4-1.9,3c1.4,0.5,2.6,1.6,2.6,3.8c0,3.1-2.6,4.6-5.3,4.6h-8.7
			V842.9z M500,848.8h2.5c1,0,1.6-0.3,1.6-1.3c0-0.8-0.6-1-1.6-1H500V848.8z M500,854.5h2.8c1,0,1.8-0.3,1.8-1.5
			c0-0.9-0.5-1.4-1.6-1.4h-3V854.5z"/>
		<path class="st2" d="M511.6,842.9h12.6v3.9h-7.9v1.9h7.2v3.6h-7.2v1.9h8.2v3.9h-12.9L511.6,842.9z"/>
		<path class="st2" d="M530.6,846.8h-4.3v-3.9h13.2v3.9h-4.3v11.3h-4.7L530.6,846.8L530.6,846.8z"/>
		<path class="st2" d="M544.1,842.9h4.6l5.6,15.3h-4.9l-0.6-2.2H544l-0.7,2.2h-4.7L544.1,842.9z M547.8,852.7l-1.4-4.7l0,0l-1.5,4.7
			H547.8z"/>
	</g>
</g>
</svg>
