<svg id="Layer_1" data-name="Layer 1" xmlns="http://www.w3.org/2000/svg" viewBox="0 0 720 105.88"><defs><style>.cls-1{fill:#00a1df;}.cls-2{fill:#29739d;}.cls-3{fill:#fff;}</style></defs><title>Artboard 1</title><path class="cls-1" d="M710.28,0A9.72,9.72,0,0,1,720,9.72V96.16a9.72,9.72,0,0,1-9.72,9.72H333.69l43.08-60.41H361.72L382,0Z"/><path class="cls-2" d="M338.72,57.94,360,0H9.72A9.72,9.72,0,0,0,0,9.72V96.16a9.72,9.72,0,0,0,9.72,9.72H333l21.28-47.95Z"/><path class="cls-3" d="M403.1,68.9H422l-.4,2.49H399.82l6.34-40.09h2.94Z"/><path class="cls-3" d="M429.82,71.39H427l4.47-28.26h2.83Zm2.55-38.22A2.88,2.88,0,0,1,433,31.3a2.3,2.3,0,0,1,1.9-.74q1.87,0,1.87,1.59a2.79,2.79,0,0,1-.59,1.81,2.29,2.29,0,0,1-1.9.74Q432.37,34.69,432.37,33.17Z"/><path class="cls-3" d="M437.5,82.83l1.36-1.92a13.18,13.18,0,0,0,8.21,2.72,11.06,11.06,0,0,0,8.1-3,14.54,14.54,0,0,0,3.91-8.38l1.13-6.91h-.11a12.51,12.51,0,0,1-4.84,5.12,13.05,13.05,0,0,1-6.43,1.61A9.34,9.34,0,0,1,441.35,69q-2.66-3.09-2.66-8.35a21,21,0,0,1,2-9.4,15.73,15.73,0,0,1,5.83-6.51,16.39,16.39,0,0,1,8.89-2.38,19.74,19.74,0,0,1,5.46.71,19,19,0,0,1,5,2.35l-4.08,26.73q-1,6.51-4.7,10.19T447.07,86a16.46,16.46,0,0,1-5.29-.85A13.06,13.06,0,0,1,437.5,82.83Zm23.78-25.65,1.59-10.59a13.41,13.41,0,0,0-7.47-1.93A13,13,0,0,0,448,46.73a13.25,13.25,0,0,0-4.76,5.63,18.73,18.73,0,0,0-1.64,7.93,10.88,10.88,0,0,0,2,6.94,6.94,6.94,0,0,0,5.78,2.58,10.17,10.17,0,0,0,7.76-3.51A16.82,16.82,0,0,0,461.28,57.17Z"/><path class="cls-3" d="M476.28,31.3h2.83l-3,18.23h.11a12.28,12.28,0,0,1,4.56-5.18,12.53,12.53,0,0,1,7-2q4.3,0,6.43,2.38a8.92,8.92,0,0,1,2.12,6.17,13.09,13.09,0,0,1-.23,2.55l-2.89,17.95h-2.83l2.77-17.44a14,14,0,0,0,.23-2.6q0-6.62-6.29-6.62A10.11,10.11,0,0,0,479,48.79a22.12,22.12,0,0,0-4.33,10.87l-1.87,11.72h-2.83Z"/><path class="cls-3" d="M509.87,43.13h7.81l-.34,2.21h-7.81L506.58,64a15,15,0,0,0-.23,2.27q0,3.51,3.68,3.51a10.69,10.69,0,0,0,3.17-.51l.23,2.21a11.25,11.25,0,0,1-4.08.68A6.21,6.21,0,0,1,505,70.76a5.22,5.22,0,0,1-1.56-4.08,17.7,17.7,0,0,1,.23-2.49l3-18.86h-5.21l.28-1.87,5.27-.34,1.19-7.42,3-1Z"/><path class="cls-3" d="M522.77,49.25q.34-2,.62-6.12H526a44.37,44.37,0,0,1-.68,6.62h.11A12.63,12.63,0,0,1,530,44.38a12.49,12.49,0,0,1,7-2q4.3,0,6.43,2.38a8.92,8.92,0,0,1,2.12,6.17,13.09,13.09,0,0,1-.23,2.55l-2.83,17.95h-2.83l2.72-17.44a14,14,0,0,0,.23-2.6q0-6.62-6.29-6.62a10.11,10.11,0,0,0-8.13,4.08A22.12,22.12,0,0,0,524,59.67l-1.87,11.72h-2.83Z"/><path class="cls-3" d="M554.23,71.39h-2.83l4.47-28.26h2.83Zm2.55-38.22a2.88,2.88,0,0,1,.59-1.87,2.3,2.3,0,0,1,1.9-.74q1.87,0,1.87,1.59a2.79,2.79,0,0,1-.59,1.81,2.29,2.29,0,0,1-1.9.74Q556.77,34.69,556.77,33.17Z"/><path class="cls-3" d="M567.05,49.25q.34-2,.62-6.12h2.6a44.37,44.37,0,0,1-.68,6.62h.11a12.63,12.63,0,0,1,4.62-5.38,12.49,12.49,0,0,1,7-2q4.3,0,6.43,2.38a8.92,8.92,0,0,1,2.12,6.17,13.09,13.09,0,0,1-.23,2.55l-2.83,17.95H584l2.72-17.44a14,14,0,0,0,.23-2.6q0-6.62-6.29-6.62a10.11,10.11,0,0,0-8.13,4.08,22.12,22.12,0,0,0-4.33,10.87l-1.87,11.72h-2.83Z"/><path class="cls-3" d="M594.17,82.83l1.36-1.92a13.18,13.18,0,0,0,8.21,2.72,11.06,11.06,0,0,0,8.1-3,14.54,14.54,0,0,0,3.91-8.38l1.13-6.91h-.11a12.51,12.51,0,0,1-4.84,5.12,13.05,13.05,0,0,1-6.43,1.61A9.34,9.34,0,0,1,598,69q-2.66-3.09-2.66-8.35a21,21,0,0,1,2-9.4,15.73,15.73,0,0,1,5.83-6.51,16.39,16.39,0,0,1,8.89-2.38,19.74,19.74,0,0,1,5.46.71,19,19,0,0,1,5,2.35l-4.08,26.73q-1,6.51-4.7,10.19T603.73,86a16.46,16.46,0,0,1-5.29-.85A13.06,13.06,0,0,1,594.17,82.83Zm23.78-25.65,1.59-10.59a13.41,13.41,0,0,0-7.47-1.93,13,13,0,0,0-7.36,2.07,13.25,13.25,0,0,0-4.76,5.63,18.73,18.73,0,0,0-1.64,7.93,10.88,10.88,0,0,0,2,6.94,6.94,6.94,0,0,0,5.78,2.58,10.17,10.17,0,0,0,7.76-3.51A16.82,16.82,0,0,0,617.95,57.17Z"/><path class="cls-3" d="M636.13,70.42l1.3-2a11.49,11.49,0,0,0,5.49,1.36,8.15,8.15,0,0,0,6.34-2.55,12.52,12.52,0,0,0,2.94-6.8l4.59-29.1h2.94l-4.59,29.1A15.94,15.94,0,0,1,651.27,69a10.85,10.85,0,0,1-8.35,3.26A12.51,12.51,0,0,1,636.13,70.42Z"/><path class="cls-3" d="M659.51,67.59l1.64-1.87a16,16,0,0,0,5,3,17.29,17.29,0,0,0,6.06,1A12.55,12.55,0,0,0,680.61,67a9.16,9.16,0,0,0,3.2-7.36,6.19,6.19,0,0,0-2.24-5.1,23,23,0,0,0-6.88-3.4,19,19,0,0,1-7.13-3.74,7.38,7.38,0,0,1-2.38-5.66,9.89,9.89,0,0,1,3.91-8.35,16.28,16.28,0,0,1,10.14-3A17.61,17.61,0,0,1,690.15,34l-1.53,1.93a16.16,16.16,0,0,0-4.47-2.27,17.22,17.22,0,0,0-5.21-.74,13,13,0,0,0-7.87,2.21,7.51,7.51,0,0,0-3,6.46,5.33,5.33,0,0,0,2,4.33,19.8,19.8,0,0,0,6.2,3A22.1,22.1,0,0,1,684.09,53a8.09,8.09,0,0,1,2.66,6.34,12,12,0,0,1-7.14,11.35A17.9,17.9,0,0,1,672,72.24,17.44,17.44,0,0,1,659.51,67.59Z"/><circle class="cls-3" cx="144.53" cy="33.81" r="4.83"/><rect class="cls-3" x="140.55" y="42.23" width="7.94" height="29.12" rx="0.66" ry="0.66"/><path class="cls-3" d="M113.38,42.23h-6.62a.66.66,0,0,0-.66.66V81.28a.66.66,0,0,0,.66.66h6.62a.66.66,0,0,0,.66-.66V67.73a.21.21,0,0,1,.21-.21c1.43,2.11,5.27,4.44,9.33,4.45,8.47-.13,13-7.05,13-15.24,0-8.82-4.44-15.77-13.41-15.87a9.81,9.81,0,0,0-8.79,4.56.29.29,0,0,1-.29-.29V42.9A.66.66,0,0,0,113.38,42.23Zm8,4.72c9.4.21,9.75,18.59.05,18.91C111.64,65.54,112,47.11,121.36,47Z"/><path class="cls-3" d="M37.49,71.35a.66.66,0,0,0,.62-.44l3-8.38a.66.66,0,0,1,.62-.44H56.42a.66.66,0,0,1,.62.42l3.26,8.42a.66.66,0,0,0,.62.42h6.52a.66.66,0,0,0,.62-.9L52.68,30.75a.66.66,0,0,0-.62-.42H45a.66.66,0,0,0-.62.44L30.33,70.47a.66.66,0,0,0,.62.88ZM43.9,54.59l4.22-11.88a.66.66,0,0,1,1.24,0L54,54.57a.66.66,0,0,1-.62.9H44.53a.66.66,0,0,1-.62-.88Z"/><path class="cls-3" d="M79,42.23H72.35a.66.66,0,0,0-.66.66V81.28a.66.66,0,0,0,.66.66H79a.66.66,0,0,0,.66-.66V67.73a.21.21,0,0,1,.21-.21C81.28,69.63,85.11,72,89.18,72c8.47-.13,13-7.05,13-15.24,0-8.82-4.44-15.77-13.41-15.87a9.81,9.81,0,0,0-8.79,4.56.29.29,0,0,1-.29-.29V42.9A.66.66,0,0,0,79,42.23ZM87,47c9.4.21,9.75,18.59.05,18.91C77.23,65.54,77.56,47.11,87,47Z"/><path class="cls-3" d="M161.06,42.23h-6.62a.66.66,0,0,0-.66.66V81.28a.66.66,0,0,0,.66.66h6.62a.66.66,0,0,0,.66-.66V67.73a.21.21,0,0,1,.21-.21c1.43,2.11,5.27,4.44,9.33,4.45,8.47-.13,13-7.05,13-15.24,0-8.82-4.44-15.77-13.41-15.87A9.81,9.81,0,0,0,162,45.42a.29.29,0,0,1-.29-.29V42.9A.66.66,0,0,0,161.06,42.23ZM169,47c9.4.21,9.75,18.59.05,18.91C159.32,65.54,159.65,47.11,169,47Z"/><path class="cls-3" d="M312.78,42.23h-7a.66.66,0,0,0-.63.46l-6.27,19.13a.08.08,0,0,1-.16,0l-6.5-19.13a.66.66,0,0,0-.63-.45h-7.24a.66.66,0,0,0-.62.9l10,26.21h0c2.29,6.2-4.35,5.61-7.05,5.33a.66.66,0,0,0-.73.66v5.34a.66.66,0,0,0,.59.66c7.56.79,12.39.17,14.77-6.44h0L313.4,43.13a.66.66,0,0,0-.62-.9Z"/><path class="cls-3" d="M261.25,42.23h-6.62a.66.66,0,0,0-.66.66V70.69a.66.66,0,0,0,.66.66h6.62a.66.66,0,0,0,.66-.66v-15h0c0-4.68,2-8.49,6.78-8.45,4.16,0,5.22,3.05,5.2,7.25h0V70.69a.66.66,0,0,0,.66.66h6.55a.66.66,0,0,0,.66-.66V53c0-8.37-2.44-12.05-10.59-12.15h0a10.47,10.47,0,0,0-9.26,4.9V42.9A.66.66,0,0,0,261.25,42.23Z"/><path class="cls-3" d="M234.87,72c8.52-.12,13.49-4.92,14.86-11.4a19.42,19.42,0,0,0,.41-3.28c.35-9.37-5-16.31-15.28-16.43-8,.1-12.94,4.45-14.57,10.46a19.79,19.79,0,0,0-.59,6.85C220.42,66.25,225.69,71.85,234.87,72Zm0-25c9.95.15,9.56,18.91,0,18.93C225.21,65.92,225.16,47.11,234.87,47Z"/><path class="cls-3" d="M195.48,30.42h-6.62a.66.66,0,0,0-.66.66V70.69a.66.66,0,0,0,.66.66h6.62a.66.66,0,0,0,.66-.66v-15h0c0-4.5,2.12-8.49,6.62-8.45,4.31,0,5.45,2.86,5.42,7.25h0V70.69a.66.66,0,0,0,.66.66h6.49a.66.66,0,0,0,.66-.66V53c0-8.19-2.09-12-10.5-12.15h0a10.49,10.49,0,0,0-9.34,4.9V31.08A.66.66,0,0,0,195.48,30.42Z"/><polygon class="cls-3" points="333.01 105.88 354.29 57.94 338.72 57.94 360 0 381.96 0 361.72 45.48 376.77 45.48 333.69 105.88 333.01 105.88"/></svg>