<?xml version="1.0" encoding="utf-8"?>
<!-- Generator: Adobe Illustrator 19.1.0, SVG Export Plug-In . SVG Version: 6.00 Build 0)  -->
<svg version="1.1" id="Layer_1" xmlns="http://www.w3.org/2000/svg" xmlns:xlink="http://www.w3.org/1999/xlink" x="0px" y="0px"
	 viewBox="0 0 216 213.9" style="enable-background:new 0 0 216 213.9;" xml:space="preserve">
<style type="text/css">
	.st0{fill:#00A1DF;}
	.st1{fill:#29739D;}
	.st2{fill:#FFFFFF;}
</style>
<g>
	<path class="st0" d="M196.4,0C207.2,0,216,8.8,216,19.6l0,174.6c0,10.8-8.8,19.6-19.6,19.6l-136.5,0l87-122l-30.4,0L157.4,0
		L196.4,0z"/>
	<path class="st1" d="M70,117L113,0L19.6,0C8.8,0,0,8.8,0,19.6l0,174.6c0,10.8,8.8,19.6,19.6,19.6l38.8,0l43-96.8L70,117z"/>
</g>
<g>
	<polygon class="st2" points="58.5,213.9 101.5,117 70,117 113,0 157.4,0 116.5,91.9 146.9,91.9 59.9,213.9 	"/>
</g>
</svg>
