<?xml version="1.0" encoding="utf-8"?>
<!-- Generator: Adobe Illustrator 19.1.0, SVG Export Plug-In . SVG Version: 6.00 Build 0)  -->
<svg version="1.1" id="Layer_1" xmlns="http://www.w3.org/2000/svg" xmlns:xlink="http://www.w3.org/1999/xlink" x="0px" y="0px"
	 viewBox="0 0 720 121.7" style="enable-background:new 0 0 720 121.7;" xml:space="preserve">
<style type="text/css">
	.st0{fill:#00A1DF;}
	.st1{fill:#29739D;}
	.st2{fill:#FFFFFF;}
	.st3{fill:#D4504C;}
</style>
<g>
	<path class="st0" d="M710.3,0c5.4,0,9.7,4.4,9.7,9.7v86.4c0,5.4-4.4,9.7-9.7,9.7l-376.6,0l43.1-60.4l-15.1,0L382,0L710.3,0z"/>
	<path class="st1" d="M338.7,57.9L360,0L9.7,0C4.4,0,0,4.4,0,9.7l0,86.4c0,5.4,4.4,9.7,9.7,9.7l323.3,0l21.3-47.9L338.7,57.9z"/>
	<g>
		<path class="st2" d="M403.1,68.9l18.9,0l-0.4,2.5l-21.7,0l6.3-40.1l2.9,0L403.1,68.9z"/>
		<path class="st2" d="M429.8,71.4H427l4.5-28.3h2.8L429.8,71.4z M432.4,33.2c0-0.8,0.2-1.4,0.6-1.9c0.4-0.5,1-0.7,1.9-0.7
			c1.2,0,1.9,0.5,1.9,1.6c0,0.7-0.2,1.3-0.6,1.8c-0.4,0.5-1,0.7-1.9,0.7C433,34.7,432.4,34.2,432.4,33.2z"/>
		<path class="st2" d="M437.5,82.8l1.4-1.9c2.4,1.8,5.1,2.7,8.2,2.7c3.4,0,6.1-1,8.1-3c2-2,3.3-4.8,3.9-8.4l1.1-6.9h-0.1
			c-1.3,2.3-2.9,4-4.8,5.1c-1.9,1.1-4.1,1.6-6.4,1.6c-3.2,0-5.7-1-7.5-3.1c-1.8-2.1-2.7-4.8-2.7-8.4c0-3.5,0.7-6.6,2-9.4
			c1.4-2.8,3.3-4.9,5.8-6.5c2.5-1.6,5.5-2.4,8.9-2.4c2,0,3.8,0.2,5.5,0.7c1.6,0.5,3.3,1.3,5,2.3l-4.1,26.7
			c-0.6,4.3-2.2,7.7-4.7,10.2c-2.5,2.5-5.9,3.7-10.1,3.7c-1.8,0-3.6-0.3-5.3-0.8C440.1,84.6,438.7,83.8,437.5,82.8z M461.3,57.2
			l1.6-10.6c-2-1.3-4.5-1.9-7.5-1.9c-2.8,0-5.3,0.7-7.4,2.1c-2.1,1.4-3.7,3.3-4.8,5.6c-1.1,2.4-1.6,5-1.6,7.9c0,2.9,0.7,5.2,2,6.9
			c1.4,1.7,3.3,2.6,5.8,2.6c3,0,5.6-1.2,7.8-3.5C459.4,64,460.7,60.9,461.3,57.2z"/>
		<path class="st2" d="M476.3,31.3l2.8,0l-3,18.2h0.1c1-2.1,2.5-3.8,4.6-5.2c2.1-1.3,4.4-2,7-2c2.9,0,5,0.8,6.4,2.4
			c1.4,1.6,2.1,3.6,2.1,6.2c0,0.9-0.1,1.8-0.2,2.5l-2.9,17.9h-2.8l2.8-17.4c0.2-0.8,0.2-1.7,0.2-2.6c0-4.4-2.1-6.6-6.3-6.6
			c-3.2,0-5.9,1.4-8.1,4.1c-2.2,2.7-3.7,6.3-4.3,10.9l-1.9,11.7h-2.8L476.3,31.3z"/>
		<path class="st2" d="M509.9,43.1l7.8,0l-0.3,2.2l-7.8,0L506.6,64c-0.2,0.9-0.2,1.7-0.2,2.3c0,2.3,1.2,3.5,3.7,3.5
			c1,0,2.1-0.2,3.2-0.5l0.2,2.2c-1.2,0.5-2.5,0.7-4.1,0.7c-1.8,0-3.3-0.5-4.3-1.4c-1-0.9-1.6-2.3-1.6-4.1c0-0.6,0.1-1.5,0.2-2.5
			l3-18.9l-5.2,0l0.3-1.9l5.3-0.3l1.2-7.4l3-1L509.9,43.1z"/>
		<path class="st2" d="M522.8,49.2c0.2-1.4,0.4-3.4,0.6-6.1h2.6c-0.1,2.4-0.3,4.6-0.7,6.6h0.1c1-2.2,2.6-4,4.6-5.4
			c2.1-1.4,4.4-2,7-2c2.9,0,5,0.8,6.4,2.4c1.4,1.6,2.1,3.6,2.1,6.2c0,0.9-0.1,1.8-0.2,2.5l-2.8,17.9h-2.8l2.7-17.4
			c0.2-0.8,0.2-1.7,0.2-2.6c0-4.4-2.1-6.6-6.3-6.6c-3.2,0-5.9,1.4-8.1,4.1s-3.7,6.3-4.3,10.9l-1.9,11.7h-2.8L522.8,49.2z"/>
		<path class="st2" d="M554.2,71.4l-2.8,0l4.5-28.3h2.8L554.2,71.4z M556.8,33.2c0-0.8,0.2-1.4,0.6-1.9c0.4-0.5,1-0.7,1.9-0.7
			c1.2,0,1.9,0.5,1.9,1.6c0,0.7-0.2,1.3-0.6,1.8c-0.4,0.5-1,0.7-1.9,0.7C557.4,34.7,556.8,34.2,556.8,33.2z"/>
		<path class="st2" d="M567.1,49.2c0.2-1.4,0.4-3.4,0.6-6.1h2.6c-0.1,2.4-0.3,4.6-0.7,6.6h0.1c1-2.2,2.6-4,4.6-5.4
			c2.1-1.4,4.4-2,7-2c2.9,0,5,0.8,6.4,2.4c1.4,1.6,2.1,3.6,2.1,6.2c0,0.9-0.1,1.8-0.2,2.5l-2.8,17.9H584l2.7-17.4
			c0.2-0.8,0.2-1.7,0.2-2.6c0-4.4-2.1-6.6-6.3-6.6c-3.2,0-5.9,1.4-8.1,4.1c-2.2,2.7-3.7,6.3-4.3,10.9l-1.9,11.7l-2.8,0L567.1,49.2z"
			/>
		<path class="st2" d="M594.2,82.8l1.4-1.9c2.4,1.8,5.1,2.7,8.2,2.7c3.4,0,6.1-1,8.1-3c2-2,3.3-4.8,3.9-8.4l1.1-6.9h-0.1
			c-1.3,2.3-2.9,4-4.8,5.1c-1.9,1.1-4.1,1.6-6.4,1.6c-3.2,0-5.7-1-7.5-3.1c-1.8-2.1-2.7-4.8-2.7-8.4c0-3.5,0.7-6.6,2-9.4
			c1.4-2.8,3.3-4.9,5.8-6.5c2.5-1.6,5.5-2.4,8.9-2.4c2,0,3.8,0.2,5.5,0.7c1.6,0.5,3.3,1.3,5,2.3l-4.1,26.7
			c-0.6,4.3-2.2,7.7-4.7,10.2c-2.5,2.5-5.9,3.7-10.1,3.7c-1.8,0-3.6-0.3-5.3-0.8C596.8,84.6,595.3,83.8,594.2,82.8z M617.9,57.2
			l1.6-10.6c-2-1.3-4.5-1.9-7.5-1.9c-2.8,0-5.3,0.7-7.4,2.1c-2.1,1.4-3.7,3.3-4.8,5.6c-1.1,2.4-1.6,5-1.6,7.9c0,2.9,0.7,5.2,2,6.9
			c1.4,1.7,3.3,2.6,5.8,2.6c3,0,5.6-1.2,7.8-3.5C616,64,617.4,60.9,617.9,57.2z"/>
		<path class="st2" d="M636.1,70.4l1.3-2c1.7,0.9,3.5,1.4,5.5,1.4c2.7,0,4.8-0.8,6.3-2.5c1.5-1.7,2.5-4,2.9-6.8l4.6-29.1l2.9,0
			l-4.6,29.1c-0.6,3.5-1.9,6.4-3.9,8.6c-2,2.2-4.8,3.3-8.4,3.3C640.3,72.2,638.1,71.6,636.1,70.4z"/>
		<path class="st2" d="M659.5,67.6l1.6-1.9c1.5,1.4,3.2,2.4,5,3c1.8,0.7,3.8,1,6.1,1c3.5,0,6.3-0.9,8.4-2.7c2.1-1.8,3.2-4.3,3.2-7.4
			c0-2.2-0.7-3.9-2.2-5.1c-1.5-1.2-3.8-2.3-6.9-3.4c-3.2-1-5.5-2.3-7.1-3.7c-1.6-1.5-2.4-3.4-2.4-5.7c0-3.6,1.3-6.4,3.9-8.4
			c2.6-2,6-3,10.1-3c4.2,0,7.8,1.2,10.9,3.5l-1.5,1.9c-1.4-1-2.9-1.8-4.5-2.3c-1.5-0.5-3.3-0.7-5.2-0.7c-3.2,0-5.9,0.7-7.9,2.2
			c-2,1.5-3,3.6-3,6.5c0,1.8,0.7,3.3,2,4.3c1.3,1.1,3.4,2.1,6.2,3c3.5,1.1,6.1,2.5,7.9,4.1c1.8,1.6,2.7,3.7,2.7,6.3
			c0,2.6-0.6,4.9-1.9,6.9c-1.3,1.9-3,3.4-5.2,4.5c-2.2,1-4.8,1.6-7.6,1.6C666.9,72.2,662.8,70.7,659.5,67.6z"/>
	</g>
	<circle class="st2" cx="144.5" cy="33.8" r="4.8"/>
	<path class="st2" d="M141.2,42.2c-0.4,0-0.7,0.3-0.7,0.7v27.8c0,0.4,0.3,0.7,0.7,0.7h6.6c0.4,0,0.7-0.3,0.7-0.7V42.9
		c0-0.4-0.3-0.7-0.7-0.7L141.2,42.2z"/>
	<path class="st2" d="M113.4,42.2l-6.6,0c-0.4,0-0.7,0.3-0.7,0.7l0,38.4c0,0.4,0.3,0.7,0.7,0.7l6.6,0c0.4,0,0.7-0.3,0.7-0.7l0-13.5
		c0-0.1,0.1-0.2,0.2-0.2c1.4,2.1,5.3,4.4,9.3,4.5c8.5-0.1,13-7.1,13-15.2c0-8.8-4.4-15.8-13.4-15.9c-3.7,0-6.8,1.5-8.8,4.6
		c-0.2,0-0.3-0.1-0.3-0.3v-2.2C114,42.5,113.7,42.2,113.4,42.2z M121.4,47c9.4,0.2,9.8,18.6,0.1,18.9C111.6,65.5,112,47.1,121.4,47z
		"/>
	<path class="st2" d="M37.5,71.4c0.3,0,0.5-0.2,0.6-0.4l3-8.4c0.1-0.3,0.3-0.4,0.6-0.4l14.7,0c0.3,0,0.5,0.2,0.6,0.4l3.3,8.4
		c0.1,0.3,0.3,0.4,0.6,0.4h6.5c0.2,0,0.4-0.1,0.5-0.3c0.1-0.2,0.1-0.4,0.1-0.6L52.7,30.7c-0.1-0.3-0.3-0.4-0.6-0.4l-7,0
		c-0.3,0-0.5,0.2-0.6,0.4L30.3,70.5c-0.1,0.2,0,0.4,0.1,0.6c0.1,0.2,0.3,0.3,0.5,0.3L37.5,71.4z M43.9,54.6l4.2-11.9
		c0.1-0.3,0.3-0.4,0.6-0.4c0.3,0,0.5,0.2,0.6,0.4L54,54.6c0.1,0.2,0.1,0.4-0.1,0.6c-0.1,0.2-0.3,0.3-0.5,0.3l-8.8,0
		c-0.2,0-0.4-0.1-0.5-0.3C43.9,55,43.8,54.8,43.9,54.6z"/>
	<path class="st2" d="M79,42.2l-6.6,0c-0.4,0-0.7,0.3-0.7,0.7l0,38.4c0,0.4,0.3,0.7,0.7,0.7H79c0.4,0,0.7-0.3,0.7-0.7V67.7
		c0-0.1,0.1-0.2,0.2-0.2c1.4,2.1,5.3,4.4,9.3,4.5c8.5-0.1,13-7.1,13-15.2c0-8.8-4.4-15.8-13.4-15.9c-3.7,0-6.8,1.5-8.8,4.6
		c-0.2,0-0.3-0.1-0.3-0.3v-2.2C79.6,42.5,79.3,42.2,79,42.2z M87,47c9.4,0.2,9.8,18.6,0.1,18.9C77.2,65.5,77.6,47.1,87,47z"/>
	<path class="st2" d="M161.1,42.2l-6.6,0c-0.4,0-0.7,0.3-0.7,0.7v38.4c0,0.4,0.3,0.7,0.7,0.7l6.6,0c0.4,0,0.7-0.3,0.7-0.7V67.7
		c0-0.1,0.1-0.2,0.2-0.2c1.4,2.1,5.3,4.4,9.3,4.5c8.5-0.1,13-7.1,13-15.2c0-8.8-4.4-15.8-13.4-15.9c-3.7,0-6.8,1.5-8.8,4.6
		c-0.2,0-0.3-0.1-0.3-0.3v-2.2C161.7,42.5,161.4,42.2,161.1,42.2z M169,47c9.4,0.2,9.8,18.6,0.1,18.9C159.3,65.5,159.7,47.1,169,47z
		"/>
	<path class="st2" d="M312.8,42.2l-7,0c-0.3,0-0.5,0.2-0.6,0.5l-6.3,19.1c0,0,0,0.1-0.1,0.1c0,0-0.1,0-0.1-0.1l-6.5-19.1
		c-0.1-0.3-0.3-0.4-0.6-0.4l-7.2,0c-0.2,0-0.4,0.1-0.5,0.3c-0.1,0.2-0.2,0.4-0.1,0.6l10,26.2c0,0,0,0,0,0c2.3,6.2-4.4,5.6-7.1,5.3
		c-0.2,0-0.4,0-0.5,0.2c-0.1,0.1-0.2,0.3-0.2,0.5l0,5.3c0,0.3,0.3,0.6,0.6,0.7c7.6,0.8,12.4,0.2,14.8-6.4c0,0,0,0,0,0l12.1-31.7
		c0.1-0.2,0-0.4-0.1-0.6C313.2,42.3,313,42.2,312.8,42.2z"/>
	<path class="st2" d="M261.2,42.2l-6.6,0c-0.4,0-0.7,0.3-0.7,0.7v27.8c0,0.4,0.3,0.7,0.7,0.7h6.6c0.4,0,0.7-0.3,0.7-0.7v-15
		c0,0,0,0,0,0c0-4.7,2-8.5,6.8-8.4c4.2,0,5.2,3.1,5.2,7.2c0,0,0,0,0,0v16.2c0,0.4,0.3,0.7,0.7,0.7l6.6,0c0.4,0,0.7-0.3,0.7-0.7V53
		c0-8.4-2.4-12.1-10.6-12.2c0,0,0,0,0,0c-3.9,0-7.1,1.6-9.3,4.9v-2.9C261.9,42.5,261.6,42.2,261.2,42.2z"/>
	<path class="st2" d="M234.9,72c8.5-0.1,13.5-4.9,14.9-11.4c0.2-1.1,0.4-2.2,0.4-3.3c0.4-9.4-5-16.3-15.3-16.4
		c-8,0.1-12.9,4.5-14.6,10.5c-0.6,2.2-0.8,4.6-0.6,6.9C220.4,66.3,225.7,71.8,234.9,72z M234.9,47c9.9,0.2,9.6,18.9,0,18.9
		C225.2,65.9,225.2,47.1,234.9,47z"/>
	<path class="st2" d="M195.5,30.4l-6.6,0c-0.4,0-0.7,0.3-0.7,0.7l0,39.6c0,0.4,0.3,0.7,0.7,0.7h6.6c0.4,0,0.7-0.3,0.7-0.7v-15
		c0,0,0,0,0,0c0-4.5,2.1-8.5,6.6-8.4c4.3,0,5.4,2.9,5.4,7.2c0,0,0,0,0,0v16.2c0,0.4,0.3,0.7,0.7,0.7l6.5,0c0.4,0,0.7-0.3,0.7-0.7V53
		c0-8.2-2.1-12-10.5-12.2c0,0,0,0,0,0c-4,0-7.2,1.6-9.3,4.9V31.1C196.1,30.7,195.8,30.4,195.5,30.4z"/>
</g>
<g>
	<path class="st3" d="M632,121.7c-1.6,0-2.9-1.3-2.9-2.9V93c0-1.6,1.3-2.9,2.9-2.9l68.3,0c1.6,0,2.9,1.3,2.9,2.9l0,25.9
		c0,1.6-1.3,2.9-2.9,2.9L632,121.7z"/>
	<g>
		<path class="st2" d="M637.3,98.3h8.4c4,0,4.9,2.3,4.9,3.8c0,1.5-0.7,2.4-1.9,3c1.4,0.5,2.6,1.6,2.6,3.8c0,3.1-2.6,4.6-5.3,4.6
			h-8.7L637.3,98.3z M642,104.2h2.5c1,0,1.6-0.3,1.6-1.3c0-0.8-0.6-1-1.6-1H642V104.2z M642,109.9h2.8c1,0,1.8-0.3,1.8-1.5
			c0-0.9-0.5-1.4-1.6-1.4H642V109.9z"/>
		<path class="st2" d="M653.6,98.3l12.6,0v3.9h-7.9v1.9l7.2,0v3.6l-7.2,0v1.9l8.2,0v3.9l-12.9,0L653.6,98.3z"/>
		<path class="st2" d="M672.6,102.2h-4.3v-3.9h13.2v3.9h-4.3l0,11.3h-4.7V102.2z"/>
		<path class="st2" d="M686.1,98.3h4.6l5.6,15.3h-4.9l-0.6-2.2h-4.8l-0.7,2.2h-4.7L686.1,98.3z M689.8,108.1l-1.4-4.7h0l-1.5,4.7
			H689.8z"/>
	</g>
</g>
</svg>
