<?xml version="1.0" encoding="utf-8"?>
<!-- Generator: Adobe Illustrator 20.0.0, SVG Export Plug-In . SVG Version: 6.00 Build 0)  -->
<svg version="1.1" id="Layer_1" xmlns="http://www.w3.org/2000/svg" xmlns:xlink="http://www.w3.org/1999/xlink" x="0px" y="0px"
	 viewBox="0 0 100 100" style="enable-background:new 0 0 100 100;" xml:space="preserve">
<style type="text/css">
	.st0{fill:#29739D;}
	.st1{fill:#FFFFFF;}
</style>
<g>
	<path class="st0" d="M93.4,0.5l-86.8,0C3,0.5,0,3.5,0,7.1l0,85.8c0,3.6,3,6.6,6.6,6.6l86.8,0c3.6,0,6.6-3,6.6-6.6V7.1
		C100,3.5,97,0.5,93.4,0.5z"/>
	<path class="st1" d="M34.6,76.9c0.4,0,0.7-0.2,0.8-0.6l3.9-11c0.1-0.3,0.5-0.6,0.8-0.6h19.3c0.4,0,0.7,0.2,0.8,0.6l4.3,11
		c0.1,0.3,0.5,0.6,0.8,0.6h8.6c0.3,0,0.6-0.1,0.7-0.4c0.2-0.2,0.2-0.5,0.1-0.8L54.6,23.6c-0.1-0.3-0.5-0.6-0.8-0.6h-9.2
		c-0.4,0-0.7,0.2-0.8,0.6L25.3,75.8c-0.1,0.3-0.1,0.6,0.1,0.8c0.2,0.2,0.4,0.4,0.7,0.4H34.6z M43.1,54.9l5.5-15.6
		c0.1-0.3,0.4-0.6,0.8-0.6c0.4,0,0.7,0.2,0.8,0.6l6,15.6c0.1,0.3,0.1,0.6-0.1,0.8c-0.2,0.2-0.4,0.4-0.7,0.4H43.9
		c-0.3,0-0.5-0.1-0.7-0.4C43,55.5,43,55.2,43.1,54.9z"/>
</g>
</svg>
