<?xml version="1.0" encoding="utf-8"?>
<!-- Generator: Adobe Illustrator 19.1.0, SVG Export Plug-In . SVG Version: 6.00 Build 0)  -->
<svg version="1.1" xmlns="http://www.w3.org/2000/svg" xmlns:xlink="http://www.w3.org/1999/xlink" x="0px" y="0px"
	 viewBox="0 0 864 864" style="enable-background:new 0 0 864 864;" xml:space="preserve">
<style type="text/css">
	.st0{display:none;}
	.st1{display:inline;fill:#16325C;}
	.st2{fill:#BCBEC0;}
	.st3{fill:#00A1DF;}
</style>
<g id="Layer_2" class="st0">
	<rect x="-525" y="-450.5" class="st1" width="1896" height="1784"/>
</g>
<g id="Layer_1">
	<g>
		<path class="st2" d="M313.2,691.7l148.2-530.1c2.4-8.6,10.3-14.6,19.2-14.6h51c13.2,0,22.8,12.6,19.2,25.3L402.6,702.4
			c-2.4,8.6-10.3,14.6-19.2,14.6h-51C319.2,717,309.6,704.4,313.2,691.7z"/>
	</g>
	<path class="st3" d="M0,467.9v-70.5c0-3.9,2.1-7.5,5.6-9.4l277-150.8c7.1-3.9,15.7,1.3,15.7,9.4v85.2c0,3.8-2.1,7.4-5.4,9.3
		l-147.4,82.9c-7.3,4.1-7.2,14.6,0.1,18.6l147.1,80.2c3.4,1.9,5.6,5.5,5.6,9.3v85.2c0,8.1-8.6,13.2-15.7,9.4L5.6,477.3
		C2.1,475.4,0,471.8,0,467.9z"/>
	<path class="st3" d="M864,396.1l0,70.5c0,3.9-2.1,7.5-5.6,9.4l-277,150.8c-7.1,3.9-15.7-1.3-15.7-9.4l0-85.2c0-3.8,2.1-7.4,5.4-9.3
		l147.4-82.9c7.3-4.1,7.2-14.6-0.1-18.6l-147.1-80.2c-3.4-1.9-5.6-5.5-5.6-9.3v-85.2c0-8.1,8.6-13.2,15.7-9.4l277,149.5
		C861.9,388.6,864,392.2,864,396.1z"/>
</g>
</svg>
