<?xml version="1.0" encoding="utf-8"?>
<!-- Generator: Adobe Illustrator 19.1.0, SVG Export Plug-In . SVG Version: 6.00 Build 0)  -->
<svg version="1.1" xmlns="http://www.w3.org/2000/svg" xmlns:xlink="http://www.w3.org/1999/xlink" x="0px" y="0px"
	 viewBox="0 0 864 864" style="enable-background:new 0 0 864 864;" xml:space="preserve">
<style type="text/css">
	.st0{display:none;}
	.st1{display:inline;fill:#16325C;}
	.st2{fill:#FFFFFF;}
	.st3{fill:#BCBEC0;}
	.st4{fill:#EF7EAD;}
	.st5{fill:#00A1DF;}
</style>
<g id="Layer_2" class="st0">
	<rect x="-525" y="-450.5" class="st1" width="1896" height="1784"/>
</g>
<g id="Layer_1">
	<path class="st2" d="M858.3,254.3H5.7v485.9h0.2c1.7,18,16.9,32.2,35.4,32.2l781.5,0c18.4,0,33.7-14.2,35.4-32.2h0.2V254.3z"/>
	<g>
		<path class="st3" d="M482.4,709.5H246.8c-9.9,0-18-8.1-18-18v-36.3c0-9.9,8.1-18,18-18h235.6c9.9,0,18,8.1,18,18v36.3
			C500.4,701.4,492.3,709.5,482.4,709.5z"/>
	</g>
	<path class="st4" d="M774,708.5H538.4c-9.9,0-18-8.1-18-18v-36.3c0-9.9,8.1-18,18-18H774c9.9,0,18,8.1,18,18v36.3
		C792,700.4,783.9,708.5,774,708.5z"/>
	<path class="st5" d="M858.3,254.3V127.1c0-19.5-16-35.5-35.5-35.5H41.2c-19.5,0-35.5,16-35.5,35.5v127.2H858.3z"/>
	<rect x="72" y="323.2" class="st3" width="720" height="36"/>
	<rect x="72" y="160.2" class="st2" width="448.4" height="36"/>
	<rect x="72" y="395.2" class="st3" width="720" height="36"/>
	<rect x="72" y="467.2" class="st3" width="337.2" height="36"/>
</g>
</svg>
