<?xml version="1.0" encoding="utf-8"?>
<!-- Generator: Adobe Illustrator 19.1.0, SVG Export Plug-In . SVG Version: 6.00 Build 0)  -->
<svg version="1.1" xmlns="http://www.w3.org/2000/svg" xmlns:xlink="http://www.w3.org/1999/xlink" x="0px" y="0px"
	 viewBox="0 0 864 864" style="enable-background:new 0 0 864 864;" xml:space="preserve">
<style type="text/css">
	.st0{display:none;}
	.st1{display:inline;fill:#16325C;}
	.st2{fill:#FFFFFF;}
	.st3{fill:#BCBEC0;}
	.st4{fill:#EF7EAD;}
	.st5{fill:#00A1DF;}
</style>
<g id="Layer_2" class="st0">
	<rect x="-525" y="-450.5" class="st1" width="1896" height="1784"/>
</g>
<g id="Layer_1">
	<path class="st2" d="M41.7,541.3h780.6c19.8,0,36-16.2,36-36V66.2c0-19.8-16.2-36-36-36H41.7c-19.8,0-36,16.2-36,36v439.1
		C5.7,525.1,21.9,541.3,41.7,541.3z"/>
	<path class="st2" d="M531.2,538.2L448.5,600c-9.8,7.3-23.2,7.3-33,0l-82.7-61.7c-21.3-15.9-10-49.7,16.5-49.7h165.5
		C541.3,488.5,552.5,522.3,531.2,538.2z"/>
	<circle class="st3" cx="239.8" cy="779.7" r="54"/>
	<circle class="st3" cx="432" cy="779.7" r="54"/>
	<circle class="st3" cx="624.2" cy="779.7" r="54"/>
	<path class="st4" d="M774,477.4H538.4c-9.9,0-18-8.1-18-18v-36.3c0-9.9,8.1-18,18-18H774c9.9,0,18,8.1,18,18v36.3
		C792,469.3,783.9,477.4,774,477.4z"/>
	<rect x="72" y="92.4" class="st5" width="720" height="36"/>
	<rect x="72" y="343.5" class="st3" width="263.5" height="36"/>
	<rect x="72" y="200.4" class="st3" width="720" height="36"/>
	<rect x="72" y="272.4" class="st3" width="720" height="36"/>
</g>
</svg>
