<?xml version="1.0" encoding="utf-8"?>
<!-- Generator: Adobe Illustrator 19.1.0, SVG Export Plug-In . SVG Version: 6.00 Build 0)  -->
<svg version="1.1" xmlns="http://www.w3.org/2000/svg" xmlns:xlink="http://www.w3.org/1999/xlink" x="0px" y="0px"
	 viewBox="0 0 864 864" style="enable-background:new 0 0 864 864;" xml:space="preserve">
<style type="text/css">
	.st0{display:none;}
	.st1{display:inline;fill:#16325C;}
	.st2{fill:#FFFFFF;}
	.st3{fill:#00A1DF;}
	.st4{fill:#BCBEC0;}
</style>
<g id="Layer_2" class="st0">
	<rect x="-525" y="-450.5" class="st1" width="1896" height="1784"/>
</g>
<g id="Layer_1">
	<g>
		<path class="st2" d="M41.7,644.7h780.6c19.8,0,36-16.2,36-36V518c0-19.8-16.2-36-36-36H41.7c-19.8,0-36,16.2-36,36v90.7
			C5.7,628.5,21.9,644.7,41.7,644.7z"/>
	</g>
	<rect x="72" y="545.3" class="st3" width="617.3" height="36"/>
	<g>
		<path class="st4" d="M796.4,554.9l-30.9,30.9c-3.9,3.9-10.1,3.9-14,0v0c-3.9-3.9-3.9-10.1,0-14l30.9-30.9c3.9-3.9,10.1-3.9,14,0v0
			C800.2,544.7,800.2,551,796.4,554.9z"/>
		<path class="st4" d="M765.4,540.9l30.9,30.9c3.9,3.9,3.9,10.1,0,14l0,0c-3.9,3.9-10.1,3.9-14,0l-30.9-30.9c-3.9-3.9-3.9-10.1,0-14
			v0C755.3,537,761.6,537,765.4,540.9z"/>
	</g>
	<g>
		<path class="st2" d="M41.7,382H336c19.8,0,36-16.2,36-36v-90.7c0-19.8-16.2-36-36-36H41.7c-19.8,0-36,16.2-36,36V346
			C5.7,365.8,21.9,382,41.7,382z"/>
	</g>
	<rect x="72" y="282.7" class="st3" width="131" height="36"/>
	<g>
		<path class="st4" d="M310.1,292.2l-30.9,30.9c-3.9,3.9-10.1,3.9-14,0l0,0c-3.9-3.9-3.9-10.1,0-14l30.9-30.9c3.9-3.9,10.1-3.9,14,0
			v0C313.9,282.1,313.9,288.3,310.1,292.2z"/>
		<path class="st4" d="M279.1,278.2l30.9,30.9c3.9,3.9,3.9,10.1,0,14v0c-3.9,3.9-10.1,3.9-14,0l-30.9-30.9c-3.9-3.9-3.9-10.1,0-14v0
			C269,274.3,275.3,274.3,279.1,278.2z"/>
	</g>
	<g>
		<path class="st2" d="M508,382h214.3c19.8,0,36-16.2,36-36v-90.7c0-19.8-16.2-36-36-36H508c-19.8,0-36,16.2-36,36V346
			C472,365.8,488.2,382,508,382z"/>
	</g>
	<rect x="538.3" y="282.7" class="st3" width="51" height="36"/>
	<g>
		<path class="st4" d="M696.4,292.2l-30.9,30.9c-3.9,3.9-10.1,3.9-14,0v0c-3.9-3.9-3.9-10.1,0-14l30.9-30.9c3.9-3.9,10.1-3.9,14,0v0
			C700.2,282.1,700.2,288.3,696.4,292.2z"/>
		<path class="st4" d="M665.4,278.2l30.9,30.9c3.9,3.9,3.9,10.1,0,14l0,0c-3.9,3.9-10.1,3.9-14,0l-30.9-30.9c-3.9-3.9-3.9-10.1,0-14
			v0C655.3,274.3,661.6,274.3,665.4,278.2z"/>
	</g>
</g>
</svg>
