<?xml version="1.0" encoding="utf-8"?>
<!-- Generator: Adobe Illustrator 19.1.0, SVG Export Plug-In . SVG Version: 6.00 Build 0)  -->
<svg version="1.1" xmlns="http://www.w3.org/2000/svg" xmlns:xlink="http://www.w3.org/1999/xlink" x="0px" y="0px"
	 viewBox="0 0 864 864" style="enable-background:new 0 0 864 864;" xml:space="preserve">
<style type="text/css">
	.st0{display:none;}
	.st1{display:inline;fill:#16325C;}
	.st2{fill:#FFFFFF;}
	.st3{fill:#00A1DF;}
	.st4{fill:#BCBEC0;}
	.st5{fill:#EF7EAD;}
</style>
<g id="Layer_2" class="st0">
	<rect x="-525" y="-450.5" class="st1" width="1896" height="1784"/>
</g>
<g id="Layer_1">
	<path class="st2" d="M858.3,270.4H5.7v515.9h0.2c1.7,18,16.9,32.2,35.4,32.2l781.5,0c18.4,0,33.7-14.2,35.4-32.2h0.2V270.4z"/>
	<path class="st3" d="M858.3,270.4V143.2c0-19.5-16-35.5-35.5-35.5H41.2c-19.5,0-35.5,16-35.5,35.5v127.2H858.3z"/>
	<rect x="216.9" y="176.3" class="st2" width="430.2" height="36"/>
	<path class="st2" d="M792,63.4V152c0,9.9-8.1,18-18,18h-36.3c-9.9,0-18-8.1-18-18V63.4c0-9.9,8.1-18,18-18H774
		C783.9,45.4,792,53.5,792,63.4z"/>
	<path class="st2" d="M144.3,63.4V152c0,9.9-8.1,18-18,18H90c-9.9,0-18-8.1-18-18V63.4c0-9.9,8.1-18,18-18h36.3
		C136.2,45.4,144.3,53.5,144.3,63.4z"/>
	<g>
		<path class="st4" d="M120,349.5c21.5,0,39,17.5,39,39s-17.5,39-39,39s-39-17.5-39-39S98.5,349.5,120,349.5 M120,334.5
			c-29.8,0-54,24.2-54,54s24.2,54,54,54s54-24.2,54-54S149.8,334.5,120,334.5L120,334.5z"/>
	</g>
	<g>
		<path class="st4" d="M276,349.5c21.5,0,39,17.5,39,39s-17.5,39-39,39s-39-17.5-39-39S254.5,349.5,276,349.5 M276,334.5
			c-29.8,0-54,24.2-54,54s24.2,54,54,54c29.8,0,54-24.2,54-54S305.8,334.5,276,334.5L276,334.5z"/>
	</g>
	<g>
		<path class="st4" d="M432,349.5c21.5,0,39,17.5,39,39s-17.5,39-39,39s-39-17.5-39-39S410.5,349.5,432,349.5 M432,334.5
			c-29.8,0-54,24.2-54,54s24.2,54,54,54s54-24.2,54-54S461.8,334.5,432,334.5L432,334.5z"/>
	</g>
	<g>
		<path class="st4" d="M588,349.5c21.5,0,39,17.5,39,39s-17.5,39-39,39c-21.5,0-39-17.5-39-39S566.5,349.5,588,349.5 M588,334.5
			c-29.8,0-54,24.2-54,54s24.2,54,54,54s54-24.2,54-54S617.8,334.5,588,334.5L588,334.5z"/>
	</g>
	<g>
		<path class="st4" d="M744,349.5c21.5,0,39,17.5,39,39s-17.5,39-39,39c-21.5,0-39-17.5-39-39S722.5,349.5,744,349.5 M744,334.5
			c-29.8,0-54,24.2-54,54s24.2,54,54,54c29.8,0,54-24.2,54-54S773.8,334.5,744,334.5L744,334.5z"/>
	</g>
	<g>
		<path class="st4" d="M120,505.5c21.5,0,39,17.5,39,39c0,21.5-17.5,39-39,39s-39-17.5-39-39C81,523,98.5,505.5,120,505.5
			 M120,490.5c-29.8,0-54,24.2-54,54s24.2,54,54,54s54-24.2,54-54S149.8,490.5,120,490.5L120,490.5z"/>
	</g>
	<g>
		<path class="st4" d="M276,505.5c21.5,0,39,17.5,39,39c0,21.5-17.5,39-39,39s-39-17.5-39-39C237,523,254.5,505.5,276,505.5
			 M276,490.5c-29.8,0-54,24.2-54,54s24.2,54,54,54c29.8,0,54-24.2,54-54S305.8,490.5,276,490.5L276,490.5z"/>
	</g>
	<g>
		<path class="st4" d="M432,505.5c21.5,0,39,17.5,39,39c0,21.5-17.5,39-39,39s-39-17.5-39-39C393,523,410.5,505.5,432,505.5
			 M432,490.5c-29.8,0-54,24.2-54,54s24.2,54,54,54s54-24.2,54-54S461.8,490.5,432,490.5L432,490.5z"/>
	</g>
	<circle class="st5" cx="588" cy="544.5" r="54"/>
	<g>
		<path class="st4" d="M744,505.5c21.5,0,39,17.5,39,39c0,21.5-17.5,39-39,39c-21.5,0-39-17.5-39-39C705,523,722.5,505.5,744,505.5
			 M744,490.5c-29.8,0-54,24.2-54,54s24.2,54,54,54c29.8,0,54-24.2,54-54S773.8,490.5,744,490.5L744,490.5z"/>
	</g>
	<g>
		<path class="st4" d="M120,661.5c21.5,0,39,17.5,39,39c0,21.5-17.5,39-39,39s-39-17.5-39-39C81,679,98.5,661.5,120,661.5
			 M120,646.5c-29.8,0-54,24.2-54,54s24.2,54,54,54s54-24.2,54-54S149.8,646.5,120,646.5L120,646.5z"/>
	</g>
	<g>
		<path class="st4" d="M276,661.5c21.5,0,39,17.5,39,39c0,21.5-17.5,39-39,39s-39-17.5-39-39C237,679,254.5,661.5,276,661.5
			 M276,646.5c-29.8,0-54,24.2-54,54s24.2,54,54,54c29.8,0,54-24.2,54-54S305.8,646.5,276,646.5L276,646.5z"/>
	</g>
</g>
</svg>
