<?xml version="1.0" encoding="utf-8"?>
<!-- Generator: Adobe Illustrator 19.1.0, SVG Export Plug-In . SVG Version: 6.00 Build 0)  -->
<svg version="1.1" xmlns="http://www.w3.org/2000/svg" xmlns:xlink="http://www.w3.org/1999/xlink" x="0px" y="0px"
	 viewBox="0 0 864 864" style="enable-background:new 0 0 864 864;" xml:space="preserve">
<style type="text/css">
	.st0{display:none;}
	.st1{display:inline;fill:#16325C;}
	.st2{fill:#FFFFFF;}
	.st3{fill:#BCBEC0;}
	.st4{fill:#00A1DF;}
	.st5{fill:#EF7EAD;}
</style>
<g id="Layer_2" class="st0">
	<rect x="-525" y="-450.5" class="st1" width="1896" height="1784"/>
</g>
<g id="Layer_1">
	<g>
		<path class="st2" d="M41.7,254.3h780.6c19.8,0,36-16.2,36-36v-90.7c0-19.8-16.2-36-36-36H41.7c-19.8,0-36,16.2-36,36v90.7
			C5.7,238.1,21.9,254.3,41.7,254.3z"/>
	</g>
	<path class="st2" d="M41.7,772.4h780.6c19.8,0,36-16.2,36-36V340.5c0-19.8-16.2-36-36-36H41.7c-19.8,0-36,16.2-36,36v395.9
		C5.7,756.2,21.9,772.4,41.7,772.4z"/>
	<rect x="72" y="154.9" class="st3" width="139.8" height="36"/>
	<rect x="144.8" y="360.2" class="st3" width="226.4" height="36"/>
	<rect x="144.8" y="465.2" class="st4" width="582.6" height="36"/>
	<rect x="144.8" y="570.2" class="st3" width="400.3" height="36"/>
	<rect x="144.8" y="675.2" class="st3" width="440.7" height="36"/>
	<g>
		<path class="st3" d="M663.6,609.2V560c0-8.7,9.9-13.7,16.9-8.6l41.1,30.2c6.5,4.8,5.5,14.8-1.8,18.2l-41.1,19
			C671.7,622.1,663.6,617,663.6,609.2z"/>
		<path class="st3" d="M717.3,639.7l-3.1,1.5c-4.7,2.3-10.4,0.3-12.7-4.4l-18-37.1c-2.3-4.7-0.3-10.4,4.4-12.7l3.1-1.5
			c4.7-2.3,10.4-0.3,12.7,4.4l18,37.1C724,631.7,722,637.5,717.3,639.7z"/>
	</g>
	<path class="st5" d="M90.2,396.6L90.2,396.6c10.1,0,18.2-8.1,18.2-18.2v0c0-10.1-8.1-18.2-18.2-18.2h0c-10.1,0-18.2,8.1-18.2,18.2
		v0C72,388.4,80.1,396.6,90.2,396.6z"/>
	<path class="st5" d="M90.2,501.4L90.2,501.4c10.1,0,18.2-8.1,18.2-18.2v0c0-10.1-8.1-18.2-18.2-18.2h0c-10.1,0-18.2,8.1-18.2,18.2
		v0C72,493.2,80.1,501.4,90.2,501.4z"/>
	<path class="st5" d="M90.2,606.4L90.2,606.4c10.1,0,18.2-8.1,18.2-18.2l0,0c0-10.1-8.1-18.2-18.2-18.2h0
		c-10.1,0-18.2,8.1-18.2,18.2l0,0C72,598.2,80.1,606.4,90.2,606.4z"/>
	<path class="st5" d="M90.2,711.4L90.2,711.4c10.1,0,18.2-8.1,18.2-18.2l0,0c0-10.1-8.1-18.2-18.2-18.2h0
		c-10.1,0-18.2,8.1-18.2,18.2l0,0C72,703.2,80.1,711.4,90.2,711.4z"/>
</g>
</svg>
