<?xml version="1.0" encoding="utf-8"?>
<!-- Generator: Adobe Illustrator 19.1.0, SVG Export Plug-In . SVG Version: 6.00 Build 0)  -->
<svg version="1.1" xmlns="http://www.w3.org/2000/svg" xmlns:xlink="http://www.w3.org/1999/xlink" x="0px" y="0px"
	 viewBox="0 0 864 864" style="enable-background:new 0 0 864 864;" xml:space="preserve">
<style type="text/css">
	.st0{display:none;}
	.st1{display:inline;fill:#16325C;}
	.st2{fill:#00A1DF;}
	.st3{fill:#FFFFFF;}
	.st4{fill:#BCBEC0;}
</style>
<g id="Layer_2" class="st0">
	<rect x="-525" y="-450.5" class="st1" width="1896" height="1784"/>
</g>
<g id="Layer_1">
	<g>
		<g>
			<path class="st2" d="M274.4,310.5c-1.4-0.4-2.9-0.6-4.4-0.6H18c-9.9,0-18,8.1-18,18v208.2c0,9.9,8.1,18,18,18h252
				c1.5,0,3-0.2,4.4-0.6V310.5z"/>
		</g>
		<g>
			<path class="st3" d="M562.4,310.5c-1.4-0.4-2.9-0.6-4.4-0.6H306c-1.5,0-3,0.2-4.4,0.6v243c1.4,0.4,2.9,0.6,4.4,0.6h252
				c1.5,0,3-0.2,4.4-0.6V310.5z"/>
		</g>
		<g>
			<path class="st3" d="M846,309.9H594c-1.5,0-3,0.2-4.4,0.6v243c1.4,0.4,2.9,0.6,4.4,0.6h252c9.9,0,18-8.1,18-18V327.9
				C864,318,855.9,309.9,846,309.9z"/>
		</g>
	</g>
	<path class="st3" d="M205.6,416l-58.8,62.5c-5.2,5.5-14,5.5-19.2,0L68.8,416c-7.9-8.4-2-22.2,9.6-22.2l117.6,0
		C207.5,393.8,213.5,407.6,205.6,416z"/>
	<path class="st4" d="M367.8,453l58.8-62.5c5.2-5.5,14-5.5,19.2,0l58.8,62.5c7.9,8.4,2,22.2-9.6,22.2l-117.6,0
		C365.9,475.2,359.9,461.4,367.8,453z"/>
	<rect x="654.6" y="414" class="st4" width="146.4" height="36"/>
</g>
</svg>
