<?xml version="1.0" encoding="utf-8"?>
<!-- Generator: Adobe Illustrator 19.1.0, SVG Export Plug-In . SVG Version: 6.00 Build 0)  -->
<svg version="1.1" xmlns="http://www.w3.org/2000/svg" xmlns:xlink="http://www.w3.org/1999/xlink" x="0px" y="0px"
	 viewBox="0 0 864 864" style="enable-background:new 0 0 864 864;" xml:space="preserve">
<style type="text/css">
	.st0{display:none;}
	.st1{display:inline;fill:#16325C;}
	.st2{fill:#00A1DF;}
	.st3{fill:#FFFFFF;}
	.st4{fill:#BCBEC0;}
	.st5{fill:#EF7EAD;}
</style>
<g id="Layer_2" class="st0">
	<rect x="-525" y="-450.5" class="st1" width="1896" height="1784"/>
</g>
<g id="Layer_1">
	<g>
		<path class="st2" d="M41.7,776h780.6c19.8,0,36-16.2,36-36v-90.7c0-19.8-16.2-36-36-36H41.7c-19.8,0-36,16.2-36,36V740
			C5.7,759.8,21.9,776,41.7,776z"/>
	</g>
	<rect x="72" y="676.7" class="st3" width="617.3" height="36"/>
	<g>
		<path class="st3" d="M796.4,686.2l-30.9,30.9c-3.9,3.9-10.1,3.9-14,0l0,0c-3.9-3.9-3.9-10.1,0-14l30.9-30.9c3.9-3.9,10.1-3.9,14,0
			l0,0C800.2,676.1,800.2,682.3,796.4,686.2z"/>
		<path class="st3" d="M765.4,672.2l30.9,30.9c3.9,3.9,3.9,10.1,0,14h0c-3.9,3.9-10.1,3.9-14,0l-30.9-30.9c-3.9-3.9-3.9-10.1,0-14
			l0,0C755.3,668.4,761.6,668.4,765.4,672.2z"/>
	</g>
	<g>
		<path class="st3" d="M41.7,513.3h780.6c19.8,0,36-16.2,36-36v-90.7c0-19.8-16.2-36-36-36H41.7c-19.8,0-36,16.2-36,36v90.7
			C5.7,497.1,21.9,513.3,41.7,513.3z"/>
	</g>
	<rect x="72" y="414" class="st2" width="617.3" height="36"/>
	<g>
		<path class="st4" d="M796.4,423.5l-30.9,30.9c-3.9,3.9-10.1,3.9-14,0l0,0c-3.9-3.9-3.9-10.1,0-14l30.9-30.9c3.9-3.9,10.1-3.9,14,0
			l0,0C800.2,413.4,800.2,419.7,796.4,423.5z"/>
		<path class="st4" d="M765.4,409.5l30.9,30.9c3.9,3.9,3.9,10.1,0,14h0c-3.9,3.9-10.1,3.9-14,0l-30.9-30.9c-3.9-3.9-3.9-10.1,0-14
			l0,0C755.3,405.7,761.6,405.7,765.4,409.5z"/>
	</g>
	<g>
		<path class="st5" d="M41.7,250.7h780.6c19.8,0,36-16.2,36-36V124c0-19.8-16.2-36-36-36H41.7c-19.8,0-36,16.2-36,36v90.7
			C5.7,234.5,21.9,250.7,41.7,250.7z"/>
	</g>
	<rect x="72" y="151.3" class="st3" width="617.3" height="36"/>
	<g>
		<path class="st3" d="M796.4,160.8l-30.9,30.9c-3.9,3.9-10.1,3.9-14,0v0c-3.9-3.9-3.9-10.1,0-14l30.9-30.9c3.9-3.9,10.1-3.9,14,0v0
			C800.2,150.7,800.2,157,796.4,160.8z"/>
		<path class="st3" d="M765.4,146.8l30.9,30.9c3.9,3.9,3.9,10.1,0,14l0,0c-3.9,3.9-10.1,3.9-14,0l-30.9-30.9c-3.9-3.9-3.9-10.1,0-14
			v0C755.3,143,761.6,143,765.4,146.8z"/>
	</g>
</g>
</svg>
