<?xml version="1.0" encoding="utf-8"?>
<!-- Generator: Adobe Illustrator 19.1.0, SVG Export Plug-In . SVG Version: 6.00 Build 0)  -->
<svg version="1.1" xmlns="http://www.w3.org/2000/svg" xmlns:xlink="http://www.w3.org/1999/xlink" x="0px" y="0px"
	 viewBox="0 0 864 864" style="enable-background:new 0 0 864 864;" xml:space="preserve">
<style type="text/css">
	.st0{display:none;}
	.st1{display:inline;fill:#16325C;}
	.st2{fill:#00A1DF;}
	.st3{fill:#BCBEC0;}
	.st4{fill:#FFFFFF;}
</style>
<g id="Layer_2" class="st0">
	<rect x="-525" y="-450.5" class="st1" width="1896" height="1784"/>
</g>
<g id="Layer_1">
	<path class="st2" d="M41.7,422.1h780.6c19.8,0,36-16.2,36-36V185.4c0-19.8-16.2-36-36-36H41.7c-19.8,0-36,16.2-36,36v200.7
		C5.7,405.9,21.9,422.1,41.7,422.1z"/>
	<path class="st2" d="M531.2,419l-82.7,61.7c-9.8,7.3-23.2,7.3-33,0L332.8,419c-21.3-15.9-10-49.7,16.5-49.7h165.5
		C541.3,369.3,552.5,403.1,531.2,419z"/>
	<circle class="st3" cx="239.8" cy="660.6" r="54"/>
	<circle class="st3" cx="432" cy="660.6" r="54"/>
	<circle class="st3" cx="624.2" cy="660.6" r="54"/>
	<rect x="99.8" y="249.8" class="st4" width="661.4" height="72"/>
</g>
</svg>
