<?xml version="1.0" encoding="utf-8"?>
<!-- Generator: Adobe Illustrator 19.1.0, SVG Export Plug-In . SVG Version: 6.00 Build 0)  -->
<svg version="1.1" xmlns="http://www.w3.org/2000/svg" xmlns:xlink="http://www.w3.org/1999/xlink" x="0px" y="0px"
	 viewBox="0 0 864 864" style="enable-background:new 0 0 864 864;" xml:space="preserve">
<style type="text/css">
	.st0{display:none;}
	.st1{display:inline;fill:#16325C;}
	.st2{fill:#FFFFFF;}
	.st3{fill:#00A1DF;}
</style>
<g id="Layer_2" class="st0">
	<rect x="-525" y="-450.5" class="st1" width="1896" height="1784"/>
</g>
<g id="Layer_1">
	<path class="st2" d="M432.8,10C390.6,10,356,44.6,356,86.8v338.7c0,42.3,34.6,76.8,76.8,76.8c42.3,0,76.8-34.6,76.8-76.8V86.8
		C509.7,44.6,475.1,10,432.8,10z"/>
	<g>
		<path class="st3" d="M629.7,129.7V295l0,0c26.5,38.8,41,84.6,41.3,132.6c0.5,62.2-23.4,122.5-66.5,167.3
			c-55.8,58.1-135.5,84.3-217.3,69.5c-32.3-5.8-63-18.6-90-37.4C230.6,580.6,193,507.9,193,429.4c0-49.7,15.1-97,43-136.9l0,0V128.6
			C137.9,192.6,73,303.4,73,429.4c0,198.3,160.7,359,359,359s359-160.7,359-359C791,304.2,726.9,193.9,629.7,129.7z"/>
	</g>
</g>
</svg>
