<?xml version="1.0" encoding="utf-8"?>
<!-- Generator: Adobe Illustrator 19.1.0, SVG Export Plug-In . SVG Version: 6.00 Build 0)  -->
<svg version="1.1" xmlns="http://www.w3.org/2000/svg" xmlns:xlink="http://www.w3.org/1999/xlink" x="0px" y="0px"
	 viewBox="0 0 864 864" style="enable-background:new 0 0 864 864;" xml:space="preserve">
<style type="text/css">
	.st0{display:none;}
	.st1{display:inline;fill:#16325C;}
	.st2{fill:#00A1DF;}
	.st3{fill:#FFFFFF;}
	.st4{fill:#EF7EAD;}
	.st5{fill:#BCBEC0;}
</style>
<g id="Layer_2" class="st0">
	<rect x="-525" y="-450.5" class="st1" width="1896" height="1784"/>
</g>
<g id="Layer_1">
	<path class="st2" d="M41.7,254.3h780.6c19.8,0,36-16.2,36-36v-90.7c0-19.8-16.2-36-36-36H41.7c-19.8,0-36,16.2-36,36v90.7
		C5.7,238.1,21.9,254.3,41.7,254.3z"/>
	<path class="st3" d="M41.7,772.4h780.6c19.8,0,36-16.2,36-36V340.5c0-19.8-16.2-36-36-36H41.7c-19.8,0-36,16.2-36,36v395.9
		C5.7,756.2,21.9,772.4,41.7,772.4z"/>
	<rect x="72" y="154.9" class="st3" width="369.1" height="36"/>
	<rect x="72" y="360.2" class="st4" width="253.6" height="36"/>
	<rect x="72" y="465.2" class="st2" width="652.5" height="36"/>
	<rect x="72" y="570.2" class="st4" width="448.4" height="36"/>
	<rect x="72" y="675.2" class="st4" width="493.6" height="36"/>
	<path class="st3" d="M798.4,174.5l-32,23.9c-3.8,2.8-9,2.8-12.8,0l-32-23.9c-8.2-6.1-3.9-19.2,6.4-19.2H792
		C802.3,155.3,806.6,168.4,798.4,174.5z"/>
	<g>
		<path class="st5" d="M663.6,609.2V560c0-8.7,9.9-13.7,16.9-8.6l41.1,30.2c6.5,4.8,5.5,14.8-1.8,18.2l-41.1,19
			C671.7,622.1,663.6,617,663.6,609.2z"/>
		<path class="st5" d="M717.3,639.7l-3.1,1.5c-4.7,2.3-10.4,0.3-12.7-4.4l-18-37.1c-2.3-4.7-0.3-10.4,4.4-12.7l3.1-1.5
			c4.7-2.3,10.4-0.3,12.7,4.4l18,37.1C724,631.7,722,637.5,717.3,639.7z"/>
	</g>
</g>
</svg>
